<svg xmlns="http://www.w3.org/2000/svg" width="633" height="546" viewBox="0 0 633 546" fill="none"><g clip-path="url(#clip0_1456_92)"><g style="mix-blend-mode:multiply" opacity="0.2"><path d="M171.875 167.786L-76 310.879V238.865L109.509 131.784L171.875 167.786Z" fill="#9FA1B4"></path></g><path d="M179.266 92.5744L117.329 128.333L55.3921 92.5744L117.329 56.8257L179.266 92.5744Z" fill="#FBFBFB"></path><path d="M179.266 163.438L117.329 199.187V128.333L179.266 92.5744V163.438Z" fill="#F2F3F5"></path><path d="M117.329 128.333V199.187L55.3921 163.438V92.5744L117.329 128.333Z" fill="#E0E1E8"></path><g style="mix-blend-mode:multiply" opacity="0.2"><path d="M328.678 175.897L-76 409.488V337.493L266.311 139.895L328.678 175.897Z" fill="#9FA1B4"></path></g><path d="M336.069 100.685L274.132 136.444L212.185 100.685L274.132 64.9269L336.069 100.685Z" fill="#FBFBFB"></path><path d="M336.069 171.54L274.132 207.298V136.444L336.069 100.685V171.54Z" fill="#F2F3F5"></path><path d="M274.132 136.444V207.298L212.185 171.54V100.685L274.132 136.444Z" fill="#E0E1E8"></path><g style="mix-blend-mode:multiply" opacity="0.2"><path d="M604.976 113.71L-76 507.707V435.702L542.61 77.7075L604.976 113.71Z" fill="#9FA1B4"></path></g><path d="M633 61.8853C633 27.706 605.289 0 571.102 0C536.916 0 509.204 27.706 509.204 61.8853C509.204 96.0645 536.916 123.771 571.102 123.771C605.289 123.771 633 96.0645 633 61.8853Z" fill="url(#paint0_linear_1456_92)"></path><g style="mix-blend-mode:multiply" opacity="0.2"><path d="M461.571 297.562L31.1905 546H-76V535.871L399.205 261.56L461.571 297.562Z" fill="#9FA1B4"></path></g><path d="M468.963 222.35L407.025 258.109L345.079 222.35L407.025 186.601L468.963 222.35Z" fill="#FBFBFB"></path><path d="M468.962 293.214L407.025 328.963V258.109L468.962 222.35V293.214Z" fill="#F2F3F5"></path><path d="M407.025 258.109V328.963L345.079 293.214V222.35L407.025 258.109Z" fill="#E0E1E8"></path><g style="mix-blend-mode:multiply" opacity="0.2"><path d="M401.467 431.081L202.385 546H77.6528L339.101 395.079L401.467 431.081Z" fill="#9FA1B4"></path></g><path d="M408.859 355.87L346.921 391.628L284.984 355.87L346.921 320.111L408.859 355.87Z" fill="#FBFBFB"></path><path d="M408.858 426.724L346.921 462.482V391.628L408.858 355.87V426.724Z" fill="#F2F3F5"></path><path d="M346.921 391.628V462.482L284.984 426.724V355.87L346.921 391.628Z" fill="#E0E1E8"></path><path opacity="0.2" d="M575.031 325.18L538.173 346.452L501.315 325.18L538.173 303.899L575.031 325.18Z" fill="#9FA1B4"></path><path opacity="0.2" d="M620.812 256.383L583.954 277.655L547.096 256.383L583.954 235.102L620.812 256.383Z" fill="#9FA1B4"></path><path opacity="0.2" d="M630.66 317.43L614.357 326.838L598.053 317.43L614.357 308.022L630.66 317.43Z" fill="#9FA1B4"></path><path opacity="0.2" d="M541.187 213.888L524.883 223.306L508.58 213.888L524.883 204.481L541.187 213.888Z" fill="#9FA1B4"></path><path opacity="0.2" d="M335.572 47.9933L319.278 57.4008L302.975 47.9933L319.278 38.5857L335.572 47.9933Z" fill="#9FA1B4"></path><path opacity="0.2" d="M477.875 462.482L461.571 471.89L445.268 462.482L461.571 453.075L477.875 462.482Z" fill="#9FA1B4"></path><path opacity="0.2" d="M30.8689 118.945L-5.98915 140.217L-42.8472 118.945L-5.98915 97.6633L30.8689 118.945Z" fill="#9FA1B4"></path><path opacity="0.2" d="M424.489 88.7724L387.631 110.044L350.773 88.7724L387.631 67.4908L424.489 88.7724Z" fill="#9FA1B4"></path><path opacity="0.2" d="M239.029 47.9932L202.171 69.2651L165.312 47.9932L202.161 26.7214L239.029 47.9932Z" fill="#9FA1B4"></path><path opacity="0.2" d="M583.261 400.88L519.852 437.477L456.433 400.88L519.842 364.273L583.261 400.88Z" fill="#9FA1B4"></path></g><defs><linearGradient id="paint0_linear_1456_92" x1="571.401" y1="27.7832" x2="562.944" y2="123.212" gradientUnits="userSpaceOnUse"><stop stop-color="#FECC0C"></stop><stop offset="1" stop-color="#E44E9C"></stop></linearGradient><clipPath id="clip0_1456_92"><rect width="709" height="546" fill="white" transform="translate(-76)"></rect></clipPath></defs></svg>