<svg xmlns="http://www.w3.org/2000/svg" width="590" height="613" viewBox="0 0 590 613" fill="none"><g clip-path="url(#clip0_1456_527)"><path opacity="0.2" fill-rule="evenodd" clip-rule="evenodd" d="M590 613H442.296L221.557 485.435L295.409 442.76L590 613Z" fill="url(#paint0_linear_1456_527)"></path><path fill-rule="evenodd" clip-rule="evenodd" d="M221.556 485.435L147.704 442.76L184.621 378.746L221.556 421.422V485.435Z" fill="url(#paint1_linear_1456_527)"></path><path fill-rule="evenodd" clip-rule="evenodd" d="M221.557 485.435L184.622 378.746L258.474 336.071L295.409 442.76L221.557 485.435Z" fill="url(#paint2_linear_1456_527)"></path><path fill-rule="evenodd" clip-rule="evenodd" d="M221.557 485.435L184.622 378.746L258.474 336.071L295.409 442.76L221.557 485.435Z" fill="black" fill-opacity="0.4"></path><path fill-rule="evenodd" clip-rule="evenodd" d="M0 272.057V229.382L203.098 325.402L369.261 442.76L387.719 453.429L369.261 485.435L0 272.057Z" fill="#F2F3F5"></path><path fill-rule="evenodd" clip-rule="evenodd" d="M369.261 485.435V442.76L387.719 410.753L443.095 400.084V442.76L369.261 485.435Z" fill="#CCCCCC"></path><path fill-rule="evenodd" clip-rule="evenodd" d="M0 229.382L73.8521 186.706L443.095 400.084L369.261 442.76L0 229.382Z" fill="#E6E6E6"></path><path opacity="0.2" fill-rule="evenodd" clip-rule="evenodd" d="M73.8521 272.057L147.704 229.382L184.621 250.719L110.769 293.395L73.8521 272.057Z" fill="#9FA1B4"></path><path fill-rule="evenodd" clip-rule="evenodd" d="M0 229.382V186.706L41.181 201.109L73.8521 229.382L85.2755 249.19L73.8521 272.057L0 229.382Z" fill="#E44E9C"></path><path fill-rule="evenodd" clip-rule="evenodd" d="M73.8521 229.382L106.505 202.194L147.704 186.706V229.382L73.8521 272.057V229.382Z" fill="#882357"></path><path fill-rule="evenodd" clip-rule="evenodd" d="M0 186.706L46.1554 128.027L61.0431 130.09L73.8522 144.03L83.2502 179.593L73.8522 229.382L0 186.706Z" fill="#FD6AB7"></path><path fill-rule="evenodd" clip-rule="evenodd" d="M73.8521 144.03L86.6256 130.072L101.549 128.027L147.704 186.706L73.8521 229.382V144.03Z" fill="#BC357B"></path><path fill-rule="evenodd" clip-rule="evenodd" d="M46.1553 128.027V85.3512L57.8451 83.9821L73.852 101.355L80.905 121.768L73.852 144.03L46.1553 128.027Z" fill="#E44E9C"></path><path fill-rule="evenodd" clip-rule="evenodd" d="M73.8521 101.355L88.6509 85.4402L101.549 85.3513V128.027L73.8521 144.03V101.355Z" fill="#882357"></path><path fill-rule="evenodd" clip-rule="evenodd" d="M27.6968 85.3513L54.15 95.9847L73.8521 112.024L79.3062 115.171L73.8521 122.693L27.6968 96.0202V85.3513Z" fill="#FD6AB7"></path><path fill-rule="evenodd" clip-rule="evenodd" d="M73.8521 112.024L94.0872 96.2158L120.007 85.3513V96.0202L73.8521 122.693V112.024Z" fill="#BC357B"></path><path fill-rule="evenodd" clip-rule="evenodd" d="M73.8521 112.024L27.6968 85.3512L73.8521 58.679L120.008 85.3512L73.8521 112.024Z" fill="#E44E9C"></path><path fill-rule="evenodd" clip-rule="evenodd" d="M46.1553 85.3513V42.6757L57.8451 41.3065L73.852 58.6791L80.905 79.0922L73.852 101.355L46.1553 85.3513Z" fill="#BC357B"></path><path fill-rule="evenodd" clip-rule="evenodd" d="M73.8521 58.679L88.6509 42.7646L101.549 42.6757V85.3513L73.8521 101.355V58.679Z" fill="#882357"></path><path fill-rule="evenodd" clip-rule="evenodd" d="M36.9351 21.3378L54.1501 26.6367L73.8522 42.6756L79.3063 83.1641L73.8522 90.6857L36.9351 69.3479V21.3378Z" fill="#FD6AB7"></path><path fill-rule="evenodd" clip-rule="evenodd" d="M73.8521 42.6756L94.0872 26.8678L110.769 21.3378V69.3479L73.8521 90.6857V42.6756Z" fill="#BC357B"></path><path fill-rule="evenodd" clip-rule="evenodd" d="M73.8522 42.6756L36.9351 21.3378L73.8522 0L110.769 21.3378L73.8522 42.6756Z" fill="#E44E9C"></path><path fill-rule="evenodd" clip-rule="evenodd" d="M295.409 400.084V357.408L336.572 371.811L369.261 400.084L380.666 419.893L369.261 442.76L295.409 400.084Z" fill="#DCB626"></path><path fill-rule="evenodd" clip-rule="evenodd" d="M369.261 400.084L401.896 372.896L443.095 357.408V400.084L369.261 442.76V400.084Z" fill="#8A6E03"></path><path fill-rule="evenodd" clip-rule="evenodd" d="M295.409 357.408L341.564 298.729L356.452 300.792L369.261 314.733L378.659 350.296L369.261 400.084L295.409 357.408Z" fill="#FECC0C"></path><path fill-rule="evenodd" clip-rule="evenodd" d="M369.261 314.733L382.017 300.774L396.958 298.729L443.095 357.408L369.261 400.084V314.733Z" fill="#BC970A"></path><path fill-rule="evenodd" clip-rule="evenodd" d="M341.564 298.73V256.054L353.254 254.685L369.261 272.057L376.314 292.47L369.261 314.733L341.564 298.73Z" fill="#DCB626"></path><path fill-rule="evenodd" clip-rule="evenodd" d="M369.261 272.057L384.06 256.143L396.958 256.054V298.729L369.261 314.733V272.057Z" fill="#8A6E03"></path><path fill-rule="evenodd" clip-rule="evenodd" d="M323.105 256.054L349.541 266.687L369.261 282.726L374.697 285.873L369.261 293.395L323.105 266.723V256.054Z" fill="#FECC0C"></path><path fill-rule="evenodd" clip-rule="evenodd" d="M369.261 282.726L389.496 266.918L415.416 256.054V266.723L369.261 293.395V282.726Z" fill="#BC970A"></path><path fill-rule="evenodd" clip-rule="evenodd" d="M369.261 282.726L323.105 256.054L369.261 229.382L415.416 256.054L369.261 282.726Z" fill="#DCB626"></path><path fill-rule="evenodd" clip-rule="evenodd" d="M341.564 256.054V213.378L353.254 212.009L369.261 229.382L376.314 249.795L369.261 272.057L341.564 256.054Z" fill="#BC970A"></path><path fill-rule="evenodd" clip-rule="evenodd" d="M369.261 229.382L384.06 213.467L396.958 213.378V256.054L369.261 272.057V229.382Z" fill="#8A6E03"></path><path fill-rule="evenodd" clip-rule="evenodd" d="M332.326 192.04L349.541 197.339L369.261 213.378L374.697 253.867L369.261 261.388L332.326 240.05V192.04Z" fill="#FECC0C"></path><path fill-rule="evenodd" clip-rule="evenodd" d="M369.261 213.378L389.496 197.57L406.178 192.04V240.05L369.261 261.388V213.378Z" fill="#BC970A"></path><path fill-rule="evenodd" clip-rule="evenodd" d="M369.261 213.378L332.326 192.04L369.261 170.703L406.178 192.04L369.261 213.378Z" fill="#DCB626"></path></g><defs><linearGradient id="paint0_linear_1456_527" x1="275.5" y1="472.5" x2="442.5" y2="564.5" gradientUnits="userSpaceOnUse"><stop stop-color="#9FA1B4"></stop><stop offset="1" stop-color="#9FA1B4" stop-opacity="0"></stop></linearGradient><linearGradient id="paint1_linear_1456_527" x1="184.808" y1="402.695" x2="174.364" y2="484.263" gradientUnits="userSpaceOnUse"><stop stop-color="#FECC0C"></stop><stop offset="1" stop-color="#E44E9C"></stop></linearGradient><linearGradient id="paint2_linear_1456_527" x1="240.282" y1="369.599" x2="226.608" y2="484.032" gradientUnits="userSpaceOnUse"><stop stop-color="#FECC0C"></stop><stop offset="1" stop-color="#E44E9C"></stop></linearGradient><clipPath id="clip0_1456_527"><rect width="590" height="613" fill="white"></rect></clipPath></defs></svg>