<svg xmlns="http://www.w3.org/2000/svg" width="490" height="493" viewBox="0 0 490 493" fill="none"><path opacity="0.2" fill-rule="evenodd" clip-rule="evenodd" d="M490 405L400 417.5L287 329.605L340 296L490 405Z" fill="url(#paint0_linear_1707_2128)"></path><path opacity="0.2" fill-rule="evenodd" clip-rule="evenodd" d="M369 480L279 492.5L166 404.605L219 371L369 480Z" fill="url(#paint1_linear_1707_2128)"></path><g clip-path="url(#clip0_1707_2128)"><path style="mix-blend-mode:multiply" d="M150.605 397.104C144.823 410.521 159.084 416.155 182.457 409.693C205.849 403.232 229.487 387.139 235.268 373.723C241.05 360.324 226.79 354.672 203.398 361.134C180.007 367.595 156.387 383.688 150.605 397.104Z" fill="url(#paint2_radial_1707_2128)"></path><path style="mix-blend-mode:multiply" d="M244.805 341.96C230.474 346.221 239.499 367.983 264.953 390.59C290.424 413.197 322.664 428.057 336.977 423.814C351.291 419.553 342.283 397.791 316.829 375.184C291.376 352.577 259.136 337.699 244.805 341.96Z" fill="url(#paint3_radial_1707_2128)"></path><path d="M357.882 98.9505L400.592 80.2168L410.816 22.9418L367.224 40.5662L357.882 98.9505Z" fill="#882357"></path><path d="M318.238 16.2335L367.224 40.5662L410.816 22.9417L361.777 0L318.238 16.2335Z" fill="#E44E9C"></path><path d="M311.523 74.4768L357.883 98.9503L367.225 40.566L318.239 16.2334L311.523 74.4768Z" fill="#FD6AB7"></path><path d="M315.665 411.701L363.435 378.917L374.117 328.896L324.056 361.081L315.665 411.701Z" fill="#D9630B"></path><path d="M265.71 369.937L315.665 411.701L324.056 361.081L271.315 320.163L265.71 369.937Z" fill="#FF9241"></path><path d="M271.316 320.163L324.057 361.081L374.118 328.896L320.919 289.967L271.316 320.163Z" fill="#F47B20"></path><path d="M324.568 273.188L378.102 240.421L390.67 176.42L335.497 207.32L324.568 273.188Z" fill="#BC970A"></path><path d="M268.213 232.164L324.567 273.188L335.496 207.32L273.854 167.688L268.213 232.164Z" fill="#FFE06B"></path><path d="M273.854 167.687L335.496 207.32L390.668 176.42L331.512 142.105L273.854 167.687Z" fill="#FAD752"></path><path d="M5.12949 105.324L40.5424 133.231L36.2061 76.2552L0 48.0491L5.12949 105.324Z" fill="#FF91CA"></path><path d="M0 48.0492L36.2061 76.2553L92.6305 55.5145L54.3973 30.9353L0 48.0492Z" fill="#FD6AB7"></path><path d="M345.79 260.194L340.643 297.485L335.038 300.285L320.918 289.967L298.902 303.366L301.335 277.325L224.005 321.747L220.197 372.085L166.276 405.292L166.752 354.778L197.617 336.995L199.679 281.234L159.119 302.838L160.406 239.471L224.005 208.342L220.99 269.015L277.521 238.942L324.62 273.188L345.79 260.194Z" fill="#89949D"></path><path d="M364.087 160.997L367.454 138.83L344.715 149.764L364.087 160.997Z" fill="#7B8791"></path><path d="M66.7527 281.991L111.984 261.813L108.917 206.669L62.2754 227.304L66.7527 281.991Z" fill="#BDC7CE"></path><path d="M29.2594 248.08L66.7523 281.991L62.275 227.304L23.4248 192.654L29.2594 248.08Z" fill="#F0F7F7"></path><path d="M111.985 261.814L159.12 302.838L160.407 239.471L108.565 200.278L111.985 261.814Z" fill="#E6F1F1"></path><path d="M160.406 239.47L224.005 208.342L173.768 171.807L265.147 130.519L217.853 102.348L105.269 147.017L152.368 181.139L108.565 200.278L160.406 239.47Z" fill="#E8F0F2"></path><path d="M164.936 83.6148L220.32 63.05L176.358 38.2419L120.851 56.6763L164.936 83.6148Z" fill="#E8EFF1"></path><path d="M164.883 123.371L217.852 102.349L220.32 63.0502L164.936 83.615L164.883 123.371Z" fill="url(#paint4_linear_1707_2128)"></path><path d="M122.314 117.578L142.884 132.104L164.883 123.371L164.936 83.6147L120.851 56.6763L122.314 117.578Z" fill="#FCFEFE"></path><path d="M217.853 102.349L267.755 81.8717L224.551 57.5919L215.579 60.3738L220.321 63.05L217.853 102.349Z" fill="#DAE2E9"></path><path d="M217.854 102.349L263.649 129.622L267.756 81.8718L217.854 102.349Z" fill="#7D858B"></path><path d="M265.146 130.519L304.014 154.306L331.513 142.105L344.715 149.764L367.454 138.83L315.26 108.687L265.146 130.519Z" fill="#D7DFE7"></path><path d="M222.858 207.496L261.091 189.661L265.146 130.519L173.767 171.807L222.858 207.496Z" fill="#969DA3"></path><path d="M261.092 189.661L271.386 195.999L273.854 167.687L304.014 154.306L265.146 130.519L261.092 189.661Z" fill="url(#paint5_linear_1707_2128)"></path><path d="M222.858 207.496L224.003 208.342L220.989 269.015L277.519 238.942L268.212 232.164L271.385 195.999L261.091 189.661L222.858 207.496Z" fill="#AEB5BC"></path><path d="M280.746 314.423L298.902 303.366L301.335 277.325L261.991 299.915L280.746 314.423Z" fill="#494F54"></path><path d="M108.565 200.278L152.368 181.139L105.269 147.017L108.565 200.278Z" fill="#F6FAFA"></path><path d="M62.275 227.304L108.916 206.669L107.894 189.555L81.9116 169.149L23.4248 192.654L62.275 227.304Z" fill="white"></path><path d="M123.124 364.391L166.275 405.292L166.751 354.778L120.956 313.912L123.124 364.391Z" fill="#E3EFEF"></path><path d="M197.616 336.995L199.678 281.234L160.758 301.975L197.616 336.995Z" fill="#ECF4F4"></path><path d="M120.956 313.912L166.751 354.778L197.616 336.995L160.758 301.975L159.119 302.837L152.332 296.922L120.956 313.912Z" fill="#F0F7F7"></path><path d="M76.043 277.853L121.098 317.064L120.957 313.912L152.333 296.922L111.985 261.814L76.043 277.853Z" fill="#ECF3F3"></path><path d="M40.5404 133.231L93.6156 111.575L92.6285 55.5144L36.2041 76.2553L40.5404 133.231Z" fill="#E44E9C"></path><g opacity="0.4"><path d="M335.883 206.74L276.639 169.078L335.125 207.902L335.883 206.74Z" fill="white"></path><path d="M335.849 207.919L390.669 176.421L335.161 206.704L335.849 207.919Z" fill="white"></path><path d="M334.809 207.197L324.567 273.188L336.184 207.426L334.809 207.197Z" fill="white"></path></g><path d="M161.235 238.361L108.565 200.278L159.561 240.58L161.235 238.361Z" fill="white"></path><path d="M161.023 240.721L224.005 208.342L159.789 238.221L161.023 240.721Z" fill="white"></path><path d="M158.997 239.435L159.12 302.838L161.8 239.488L158.997 239.435Z" fill="white"></path><g style="mix-blend-mode:multiply" opacity="0.2"><path style="mix-blend-mode:multiply" d="M261.78 189.696L265.147 130.519L260.388 189.608L261.78 189.696Z" fill="url(#paint6_radial_1707_2128)"></path><path style="mix-blend-mode:multiply" d="M260.793 189.027L222.859 207.496L261.375 190.295L260.793 189.027Z" fill="url(#paint7_radial_1707_2128)"></path><path style="mix-blend-mode:multiply" d="M260.724 190.242L271.388 195.999L261.464 189.062L260.724 190.242Z" fill="url(#paint8_radial_1707_2128)"></path></g></g><defs><linearGradient id="paint0_linear_1707_2128" x1="335.608" y1="317.903" x2="414.764" y2="398.239" gradientUnits="userSpaceOnUse"><stop stop-color="#9FA1B4"></stop><stop offset="1" stop-color="#9FA1B4" stop-opacity="0"></stop></linearGradient><linearGradient id="paint1_linear_1707_2128" x1="214.608" y1="392.903" x2="293.764" y2="473.239" gradientUnits="userSpaceOnUse"><stop stop-color="#9FA1B4"></stop><stop offset="1" stop-color="#9FA1B4" stop-opacity="0"></stop></linearGradient><radialGradient id="paint2_radial_1707_2128" cx="0" cy="0" r="1" gradientUnits="userSpaceOnUse" gradientTransform="translate(742.314 224.003) rotate(164.567) scale(44.0501 20.3531)"><stop stop-color="#4E5A64"></stop><stop offset="0.07" stop-color="#656F78"></stop><stop offset="0.23" stop-color="#939BA1"></stop><stop offset="0.39" stop-color="#BABFC2"></stop><stop offset="0.55" stop-color="#D8DBDD"></stop><stop offset="0.71" stop-color="#EDEEEF"></stop><stop offset="0.86" stop-color="#FAFAFB"></stop><stop offset="1" stop-color="white"></stop></radialGradient><radialGradient id="paint3_radial_1707_2128" cx="0" cy="0" r="1" gradientUnits="userSpaceOnUse" gradientTransform="translate(1027.09 1049.17) rotate(-138.393) scale(61.6439 23.1133)"><stop stop-color="#4E5A64"></stop><stop offset="0.07" stop-color="#656F78"></stop><stop offset="0.23" stop-color="#939BA1"></stop><stop offset="0.39" stop-color="#BABFC2"></stop><stop offset="0.55" stop-color="#D8DBDD"></stop><stop offset="0.71" stop-color="#EDEEEF"></stop><stop offset="0.86" stop-color="#FAFAFB"></stop><stop offset="1" stop-color="white"></stop></radialGradient><linearGradient id="paint4_linear_1707_2128" x1="178.244" y1="72.6635" x2="201.74" y2="106.371" gradientUnits="userSpaceOnUse"><stop offset="0.29" stop-color="#A2ACB4"></stop><stop offset="0.5" stop-color="#9DA7AF"></stop><stop offset="0.71" stop-color="#919BA3"></stop><stop offset="0.93" stop-color="#7D878F"></stop><stop offset="1" stop-color="#758088"></stop></linearGradient><linearGradient id="paint5_linear_1707_2128" x1="298.955" y1="145.556" x2="251.46" y2="173.017" gradientUnits="userSpaceOnUse"><stop offset="0.17" stop-color="#E4EAF0"></stop><stop offset="0.25" stop-color="#DFE5EB"></stop><stop offset="0.35" stop-color="#D1D8DE"></stop><stop offset="0.38" stop-color="#CCD3D9"></stop><stop offset="0.45" stop-color="#B0B6BC"></stop><stop offset="0.53" stop-color="#9AA0A6"></stop><stop offset="0.61" stop-color="#8A9197"></stop><stop offset="0.71" stop-color="#81878D"></stop><stop offset="0.84" stop-color="#7F858B"></stop></linearGradient><radialGradient id="paint6_radial_1707_2128" cx="0" cy="0" r="1" gradientUnits="userSpaceOnUse" gradientTransform="translate(267.073 159.774) rotate(180) scale(20.9923 20.9682)"><stop stop-color="#7A858E"></stop><stop offset="0.4" stop-color="#848F98"></stop><stop offset="1" stop-color="#8F9BA5"></stop></radialGradient><radialGradient id="paint7_radial_1707_2128" cx="0" cy="0" r="1" gradientUnits="userSpaceOnUse" gradientTransform="translate(245.986 198.149) rotate(180) scale(15.2586 15.241)"><stop stop-color="#7A858E"></stop><stop offset="0.4" stop-color="#848F98"></stop><stop offset="1" stop-color="#8F9BA5"></stop></radialGradient><radialGradient id="paint8_radial_1707_2128" cx="0" cy="0" r="1" gradientUnits="userSpaceOnUse" gradientTransform="translate(270.186 192.422) rotate(180) scale(4.71526 4.70983)"><stop stop-color="#7A858E"></stop><stop offset="0.4" stop-color="#848F98"></stop><stop offset="1" stop-color="#8F9BA5"></stop></radialGradient><clipPath id="clip0_1707_2128"><rect width="416" height="412" fill="white"></rect></clipPath></defs></svg>