<svg xmlns="http://www.w3.org/2000/svg" width="320" height="371" viewBox="0 0 320 371" fill="none"><path fill-rule="evenodd" clip-rule="evenodd" d="M159.686 202.673L0 286.394V226.917L159.686 143.196V202.673Z" fill="#B53A79"></path><path fill-rule="evenodd" clip-rule="evenodd" d="M159.686 202.673L319.371 286.394V226.917L159.686 143.196V202.673Z" fill="#C82A7B"></path><path fill-rule="evenodd" clip-rule="evenodd" d="M159.686 310.638L319.371 226.917V286.394L159.686 370.115V310.638Z" fill="#E44E9C"></path><path fill-rule="evenodd" clip-rule="evenodd" d="M159.686 310.638L0 226.917V286.394L159.686 370.115V310.638Z" fill="#FD6AB7"></path><path fill-rule="evenodd" clip-rule="evenodd" d="M159.686 131.075L0 214.795V155.319L159.686 71.5988V131.075Z" fill="#DC6F1C"></path><path fill-rule="evenodd" clip-rule="evenodd" d="M159.686 131.075L319.371 214.795V155.319L159.686 71.5988V131.075Z" fill="#ED7317"></path><path fill-rule="evenodd" clip-rule="evenodd" d="M159.686 239.04L319.371 155.318V214.795L159.686 298.516V239.04Z" fill="#F47B20"></path><path fill-rule="evenodd" clip-rule="evenodd" d="M159.686 239.04L0 155.318V214.795L159.686 298.516V239.04Z" fill="#FF9241"></path><path fill-rule="evenodd" clip-rule="evenodd" d="M159.686 59.4764L0 143.196V83.7211L159.686 0V59.4764Z" fill="#E6BB1A"></path><path fill-rule="evenodd" clip-rule="evenodd" d="M159.686 59.4764L319.371 143.196V83.7211L159.686 0V59.4764Z" fill="#EBC843"></path><path fill-rule="evenodd" clip-rule="evenodd" d="M159.686 167.441L319.371 83.7211V143.197L159.686 226.917V167.441Z" fill="#FECC0C"></path><path fill-rule="evenodd" clip-rule="evenodd" d="M159.686 167.441L0 83.7211V143.197L159.686 226.917V167.441Z" fill="#FFE06B"></path></svg>