<svg xmlns="http://www.w3.org/2000/svg" width="115" height="115" viewBox="0 0 115 115" fill="none"><path fill-rule="evenodd" clip-rule="evenodd" d="M57.0343 23.8712C56.026 23.8712 55.0911 23.3705 54.5274 22.5338C51.5724 18.1327 48.0537 12.2052 48.0537 8.98059C48.0537 4.02639 52.0836 0 57.0343 0C61.985 0 66.0184 4.02989 66.0184 8.98059C66.0184 12.2052 62.4962 18.1292 59.5412 22.5338C58.9775 23.3705 58.0426 23.8712 57.0343 23.8712ZM57.0343 2.76595C53.6066 2.76595 50.8197 5.55291 50.8197 8.98059C50.8197 10.8957 53.0639 15.3843 56.8242 20.9897C56.9258 21.1403 57.1428 21.1403 57.2444 20.9897C61.0047 15.3843 63.2489 10.8957 63.2489 8.98059C63.2489 5.55291 60.462 2.76595 57.0343 2.76595ZM25.6709 57.4933C25.6709 75.0413 39.9453 89.3157 57.4933 89.3157C75.0414 89.3157 89.3158 75.0413 89.3158 57.4933C89.3158 39.9452 75.0414 25.6708 57.4933 25.6708C39.9453 25.6708 25.6709 39.9452 25.6709 57.4933ZM44.0249 31.7545C48.0532 29.6384 52.636 28.4403 57.4933 28.4403C63.0584 28.4403 68.2633 30.0132 72.6867 32.738C71.0285 32.8966 69.1141 33.2344 67.4856 33.9301C65.679 34.7039 60.1786 41.1216 59.8145 43.7755L62.549 44.1527L62.5489 44.1537H62.5559L62.549 44.1527C62.7748 42.5445 67.3563 37.1021 68.5675 36.4755C71.3573 35.2821 75.4462 35.3599 76.3294 35.3904C82.331 40.5125 86.2293 48.0306 86.5279 56.4501C85.1422 56.6974 84.1237 56.5482 83.8606 56.0192C83.7031 55.7041 83.556 55.3225 83.402 54.9164C82.9503 53.733 82.4811 52.511 81.3607 52.0279C80.9616 51.8563 80.3174 51.7198 79.5296 52.0454C78.2482 52.5706 77.1138 53.999 76.7076 55.5991C76.2455 57.4232 76.7216 59.3279 78.0521 60.9699C79.4891 62.7426 81.607 63.4224 83.3074 63.9682L83.3144 63.9705C83.8536 64.142 84.6274 64.3906 84.974 64.5902C84.6799 65.1959 83.6926 65.4375 82.229 65.7351C80.4294 66.0992 78.1887 66.5544 77.5759 68.7986C77.1943 70.1991 77.2748 71.9777 77.3624 73.8614C77.4499 75.773 77.5584 78.1504 76.9492 79.0327L76.9632 79.0423C76.0561 79.8629 75.0971 80.6272 74.0917 81.3295C71.9888 80.1647 69.8691 78.5613 69.6494 78.0173C69.5829 77.6007 69.7194 76.2422 69.8315 75.1498C70.1991 71.5401 70.3426 69.2713 69.2608 68.1929C69.0682 67.9969 68.8476 67.4472 68.6551 66.9605C68.1439 65.6756 67.3701 63.7359 65.1398 63.4768C64.0761 63.3521 63.0569 63.5703 62.0687 63.7818L62.0378 63.7884C60.6828 64.079 59.4049 64.3521 58.1024 63.7604C57.4302 63.4558 56.849 63.2422 56.3378 63.0567C54.7308 62.4685 54.6362 62.4335 54.5942 61.0015C54.5067 57.8854 55.396 52.8962 57.5842 52.0909C58.6801 51.6848 59.6605 51.0826 60.6058 50.4979C62.9341 49.0659 63.9354 48.6142 65.2484 49.6085C65.8441 50.057 66.3407 50.4703 66.7839 50.8392L66.8449 50.89L66.883 50.9216C68.7837 52.5005 70.0386 53.5429 73.7983 53.3899L73.6828 50.6239C70.9893 50.7393 70.3438 50.2012 68.6211 48.7651L68.6165 48.7613C68.1299 48.3551 67.5802 47.9035 66.9185 47.3993C63.9752 45.17 61.3049 46.8167 59.1591 48.1398L59.1563 48.1415L59.1133 48.1681L59.1132 48.1681L59.1131 48.1681C58.2968 48.6711 57.4542 49.1902 56.6284 49.493C52.6265 50.967 51.7267 57.4688 51.8283 61.0785C51.9191 64.3811 53.5972 64.9976 55.3757 65.651L55.3855 65.6546L55.405 65.6617L55.4052 65.6618C55.8694 65.8315 56.3914 66.0224 56.9575 66.2813C59.0921 67.2506 61.0484 66.8314 62.6165 66.4954L62.619 66.4949C63.4348 66.3198 64.2015 66.1587 64.8247 66.2253C65.3254 66.2813 65.588 66.7364 66.0852 67.9829L66.0889 67.9923C66.3818 68.7281 66.6827 69.4839 67.2301 70.0696C67.4927 70.7768 67.2266 73.4272 67.0795 74.8662C66.901 76.6063 66.7994 77.7092 66.915 78.4445C67.1655 80.0375 69.4749 81.7708 71.4387 82.9787C67.2971 85.2545 62.5438 86.5498 57.4933 86.5498C53.9281 86.5498 50.5108 85.9041 47.3521 84.7237C47.2478 82.4104 46.9158 74.4225 47.1227 71.9918C47.3922 68.8547 45.0885 65.1819 42.8022 62.0028C41.3644 60.0053 39.4792 59.9966 37.9604 59.9897L37.9565 59.9896L37.9002 59.9893H37.9001C37.2838 59.986 36.7027 59.9829 36.2304 59.8776C35.2956 59.503 32.3301 56.9611 32.1375 56.1313C32.0815 55.0739 34.6058 51.4677 37.5469 50.4874C40.0467 49.6541 40.9045 49.0519 42.1965 48.1381C42.7321 47.7599 43.3378 47.3328 44.1991 46.7901C47.3327 44.8224 47.0946 40.1763 46.9371 37.1023L46.9295 36.9459L46.9295 36.9458C46.9042 36.4255 46.8811 35.9483 46.8811 35.5407C46.8811 33.625 45.4829 32.4543 44.0249 31.7545ZM40.9401 33.628C42.2338 33.9087 44.1116 34.6327 44.1116 35.5407C44.1116 35.9872 44.1378 36.5092 44.1662 37.0776L44.1662 37.0778L44.1746 37.2458C44.3007 39.6721 44.4862 43.3414 42.7286 44.4478C41.8043 45.0325 41.1391 45.5016 40.6034 45.8798C39.3955 46.7341 38.7898 47.1612 36.6786 47.865C33.0513 49.0729 29.235 53.4774 29.382 56.2784C29.5081 58.6907 34.2872 62.2619 35.5337 62.5525C36.402 62.7521 37.2282 62.7591 37.953 62.7591C39.3395 62.7661 39.9767 62.8011 40.5649 63.6204L40.5749 63.6343C41.6819 65.1749 44.5906 69.223 44.3742 71.7572C44.1817 74.0027 44.4029 80.2548 44.5379 83.4978C40.0633 81.2592 36.2433 77.899 33.4485 73.7886C33.4596 72.4988 33.6871 71.1107 33.9077 69.7652L33.9129 69.7335C34.4976 66.1973 35.2223 61.7962 30.5727 60.5568C30.0552 60.4192 29.174 59.8313 28.4925 59.3021C28.4556 58.7038 28.4369 58.1007 28.4369 57.4933C28.4369 47.6203 33.3889 38.8807 40.9401 33.628ZM28.9366 62.8745C29.3847 65.2569 30.1245 67.5377 31.1176 69.6783L31.1772 69.3141L31.1819 69.2853C31.8787 65.0559 31.7876 63.7499 29.8585 63.2317C29.5593 63.1515 29.2473 63.0262 28.9366 62.8745ZM80.1976 75.604C82.0177 73.3263 83.5028 70.77 84.5778 68.0101C83.9744 68.199 83.3552 68.3246 82.7822 68.4408L82.7787 68.4415C81.3467 68.7321 80.3979 68.9632 80.2474 69.5199C79.9813 70.5002 80.0548 72.1388 80.1283 73.7248C80.1574 74.3511 80.1866 74.9828 80.1976 75.604ZM86.1816 62.1003C86.3312 61.1651 86.436 60.215 86.4937 59.2526C84.0117 59.5689 82.1972 58.8797 81.3853 57.2587C81.1682 56.821 80.9896 56.3554 80.8181 55.9072L80.789 55.8316C80.6612 55.4994 80.4875 55.0478 80.3349 54.7588C79.9918 55.0284 79.5716 55.5711 79.3896 56.2818C79.1375 57.2622 79.4106 58.253 80.2019 59.2263C81.1203 60.3579 82.7285 60.8728 84.1474 61.3271L84.1582 61.3306L84.1819 61.3382C84.8972 61.5681 85.5927 61.7918 86.1816 62.1003ZM53.9043 8.98057C53.9043 10.7102 55.3048 12.1106 57.0344 12.1106C58.764 12.1106 60.1644 10.7102 60.1644 8.98057C60.1644 7.25098 58.764 5.85049 57.0344 5.85049C55.3048 5.85049 53.9043 7.25098 53.9043 8.98057ZM57.0343 114.066C52.0801 114.066 48.0537 110.036 48.0537 105.085C48.0537 101.861 51.5759 95.9365 54.5309 91.532C55.0946 90.6952 56.0295 90.1945 57.0378 90.1945C58.0462 90.1945 58.981 90.6952 59.5447 91.532C62.4997 95.933 66.0184 101.861 66.0184 105.085C66.0184 110.039 61.9885 114.066 57.0343 114.066ZM57.0343 92.9605C56.9468 92.9605 56.8767 92.999 56.8242 93.0725C53.0639 98.6779 50.8197 103.166 50.8197 105.082C50.8197 108.509 53.6066 111.296 57.0343 111.296C60.462 111.296 63.2489 108.509 63.2489 105.082C63.2489 103.166 61.0047 98.6779 57.2444 93.0725C57.1919 92.9955 57.1218 92.9605 57.0343 92.9605ZM57.0314 108.215C58.761 108.215 60.1615 106.815 60.1615 105.085C60.1615 103.356 58.761 101.955 57.0314 101.955C55.3018 101.955 53.9014 103.356 53.9014 105.085C53.9014 106.815 55.3018 108.215 57.0314 108.215ZM8.98059 66.0152C4.02639 66.0152 0 61.9853 0 57.0311C0 52.0769 4.02989 48.0505 8.98059 48.0505C12.2052 48.0505 18.1292 51.5727 22.5338 54.5277C23.3705 55.0914 23.8712 56.0262 23.8712 57.0346C23.8712 58.0429 23.3705 58.9778 22.5338 59.5415C18.1327 62.4965 12.2052 66.0152 8.98059 66.0152ZM8.98059 50.8165C5.55291 50.8165 2.76595 53.6034 2.76595 57.0311C2.76595 60.4588 5.55291 63.2457 8.98059 63.2457C10.8957 63.2457 15.3843 61.0015 20.9897 57.2412C21.0667 57.1887 21.1018 57.1186 21.1018 57.0311C21.1018 56.9436 21.0632 56.8735 20.9897 56.821C15.3843 53.0607 10.8957 50.8165 8.98059 50.8165ZM8.98066 60.1647C10.7103 60.1647 12.1107 58.7642 12.1107 57.0346C12.1107 55.305 10.7103 53.9045 8.98066 53.9045C7.25107 53.9045 5.85059 55.305 5.85059 57.0346C5.85059 58.7642 7.25107 60.1647 8.98066 60.1647ZM105.085 66.0152C101.86 66.0152 95.9363 62.493 91.5318 59.538C90.695 58.9743 90.1943 58.0394 90.1943 57.0311C90.1943 56.0227 90.695 55.0879 91.5318 54.5242C95.9328 51.5692 101.86 48.0505 105.085 48.0505C110.039 48.0505 114.069 52.0804 114.069 57.0311C114.069 61.9818 110.039 66.0152 105.085 66.0152ZM105.085 50.8165C103.17 50.8165 98.6813 53.0607 93.0758 56.821C92.9988 56.8735 92.9638 56.9436 92.9638 57.0311C92.9638 57.1186 93.0023 57.1887 93.0758 57.2412C98.6813 61.0015 103.17 63.2457 105.085 63.2457C108.513 63.2457 111.3 60.4588 111.3 57.0311C111.3 53.6034 108.513 50.8165 105.085 50.8165ZM108.215 57.0346C108.215 55.305 106.815 53.9045 105.085 53.9045C103.356 53.9045 101.955 55.305 101.955 57.0346C101.955 58.7642 103.356 60.1647 105.085 60.1647C106.815 60.1647 108.215 58.7642 108.215 57.0346ZM99.0944 46.8601C98.8073 45.7047 98.4712 44.5493 98.093 43.4289L100.715 42.5466C101.118 43.7405 101.475 44.9694 101.78 46.1984L99.0944 46.8601ZM96.8151 40.0958C96.3424 39.0034 95.8207 37.9215 95.264 36.8781L97.7044 35.5722C98.2961 36.6821 98.8528 37.834 99.3534 38.9964L96.8151 40.0958ZM93.4504 33.7971C92.8132 32.8062 92.12 31.8259 91.3917 30.8771L93.587 29.1895C94.3607 30.1943 95.096 31.2412 95.7787 32.2951L93.4539 33.7936L93.4504 33.7971ZM89.0984 28.1391C88.2966 27.2603 87.4529 26.4025 86.5881 25.5938L88.4752 23.5701C89.396 24.4314 90.2923 25.3417 91.1466 26.2765L89.0984 28.1391ZM83.8781 23.262C82.9398 22.5232 81.9665 21.816 80.9861 21.1612L82.5162 18.8575C83.5595 19.5507 84.5959 20.3034 85.5937 21.0912L83.8781 23.262ZM77.9261 19.3091C76.8897 18.7384 75.8149 18.1992 74.7295 17.7126L75.8604 15.1882C77.0158 15.7064 78.1607 16.2771 79.2635 16.8863L77.9261 19.3091ZM71.4103 16.3891C70.2935 15.9935 69.1416 15.6433 67.9932 15.3422L68.6899 12.6638C69.9153 12.9824 71.1407 13.3571 72.3312 13.7772L71.4138 16.3891H71.4103ZM12.209 46.517L14.9014 47.1612C15.178 46.0023 15.5036 44.8434 15.8747 43.7195L13.2453 42.8547C12.8532 44.0521 12.5031 45.2846 12.209 46.517ZM14.5828 39.2975L17.1317 40.3759C17.5938 39.2835 18.1085 38.1946 18.6617 37.1443L16.2109 35.8593C15.6227 36.9797 15.073 38.1351 14.5828 39.2975ZM18.119 32.5647L20.4543 34.0492V34.0457C21.0915 33.0444 21.7778 32.057 22.4955 31.1117L20.2898 29.4416C19.5265 30.4465 18.7983 31.4968 18.119 32.5647ZM24.7694 28.3545L24.7713 28.3562H24.7678L24.7694 28.3545ZM27.2607 25.7969C26.3964 26.6121 25.5602 27.4763 24.7694 28.3545L22.7091 26.5111C23.5494 25.5728 24.4422 24.6555 25.3595 23.7872L27.2607 25.7969ZM28.2305 21.2873L29.9601 23.4441C30.8879 22.7018 31.8542 21.9911 32.8381 21.3258L31.2906 19.0325C30.2437 19.7398 29.2143 20.4995 28.2305 21.2873ZM34.5257 17.0369L35.8806 19.4492V19.4527C36.917 18.868 37.9884 18.3253 39.0632 17.8351L37.9148 15.3178C36.7734 15.8359 35.632 16.4171 34.5257 17.0369ZM42.3703 16.4795L42.3719 16.4837L42.3684 16.4802L42.3703 16.4795ZM42.3703 16.4795L41.4335 13.8788C42.6204 13.4516 43.8424 13.07 45.0608 12.7409L45.7785 15.4123C44.6308 15.7202 43.4831 16.0806 42.3703 16.4795ZM44.4789 101.608C43.2605 101.265 42.0421 100.866 40.8622 100.422L41.8355 97.8307C42.9419 98.2473 44.0868 98.6219 45.2317 98.944L44.4789 101.605V101.608ZM37.361 98.9405C36.2196 98.4014 35.0852 97.8062 33.9928 97.1724L35.3793 94.7776C36.4086 95.3728 37.473 95.933 38.5444 96.4372L37.361 98.9405ZM30.7822 95.1347C29.7459 94.417 28.727 93.6432 27.7502 92.8379L29.5078 90.7022C30.4251 91.4585 31.3844 92.1832 32.3577 92.8589L30.7787 95.1312L30.7822 95.1347ZM24.9177 90.3066C24.0074 89.4243 23.1286 88.4929 22.3023 87.5476L24.389 85.7305C25.1663 86.6198 25.9926 87.4916 26.8469 88.3214L24.9177 90.3066ZM19.9215 84.5821C19.1687 83.5632 18.4545 82.5024 17.7927 81.431L20.149 79.978C20.7688 80.9829 21.441 81.9807 22.1482 82.9365L19.9215 84.5786V84.5821ZM15.9336 78.1189C15.3629 76.995 14.8307 75.8326 14.3511 74.6632L16.9139 73.6198C17.3621 74.7157 17.8628 75.8081 18.3984 76.8654L15.9336 78.1189ZM13.0626 71.085C12.7545 70.0976 12.4744 69.0893 12.2363 68.0949L14.9253 67.4472C15.1493 68.382 15.4119 69.3239 15.7025 70.2552L13.0626 71.085ZM68.5078 99.0351L69.2361 101.706C70.3004 101.416 71.3753 101.08 72.4292 100.705L71.5048 98.0967C70.514 98.4469 69.5057 98.762 68.5078 99.0351ZM75.9508 99.2858L75.9514 99.2871H75.9479C75.9488 99.2867 75.9498 99.2863 75.9508 99.2858ZM75.9508 99.2858C77.0947 98.7715 78.2351 98.1977 79.3475 97.5821L78.0066 95.1627C76.9632 95.7439 75.8884 96.2796 74.817 96.7628L75.9508 99.2858ZM81.0596 93.3036L82.5967 95.6039C83.6435 94.9036 84.6764 94.1509 85.6672 93.3631L83.9481 91.1959C83.0133 91.9381 82.0435 92.6454 81.0596 93.3036ZM86.6546 88.8606L88.5452 90.8808V90.8773C89.4625 90.016 90.3623 89.1056 91.2096 88.1673L89.1579 86.3117C88.3631 87.194 87.5194 88.0518 86.6546 88.8606ZM91.4477 83.5632L93.643 85.2473H93.6465C94.4097 84.2495 95.145 83.2026 95.8312 82.1347L93.5029 80.6397C92.8587 81.6446 92.1655 82.6284 91.4477 83.5632ZM97.7471 78.8527L97.7499 78.8541H97.7464C97.7466 78.8536 97.7469 78.8531 97.7471 78.8527ZM95.306 77.5552L97.7471 78.8527C98.3386 77.7432 98.8915 76.5918 99.3919 75.4264L96.8501 74.3341C96.3809 75.4264 95.8627 76.5118 95.306 77.5552ZM98.1245 70.9939L100.747 71.8727C101.15 70.6753 101.503 69.4464 101.804 68.214L99.1153 67.5592C98.8317 68.7181 98.4991 69.8735 98.1245 70.9939Z" fill="url(#paint0_linear_1456_252)"></path><defs><linearGradient id="paint0_linear_1456_252" x1="102" y1="5.5" x2="21.9949" y2="107.996" gradientUnits="userSpaceOnUse"><stop stop-color="#FECC0C"></stop><stop offset="1" stop-color="#E44E9C"></stop></linearGradient></defs></svg>