<svg xmlns="http://www.w3.org/2000/svg" width="111" height="112" viewBox="0 0 111 112" fill="none"><path fill-rule="evenodd" clip-rule="evenodd" d="M11.2217 47.043C11.1145 47.043 11.0035 47.0319 10.8926 47.006L1.13301 44.762C0.744844 44.6733 0.408432 44.4293 0.205106 44.0855C0.00178075 43.7417 -0.0536717 43.3313 0.0535364 42.9469L11.7392 1.06916C11.8464 0.692087 12.0978 0.374159 12.4416 0.181924C12.7854 -0.00661446 13.1884 -0.0509764 13.5655 0.0599285L22.9147 2.84364C23.6763 3.06915 24.1162 3.86397 23.9092 4.62921L23.209 7.19634L28.2084 7.63473C32.4487 8.00441 36.7333 7.86393 40.9329 7.21329L57.8311 4.59963C60.9734 4.11534 64.2007 4.7438 66.9253 6.37411L83.8975 16.5145C84.0564 16.6106 84.1969 16.7363 84.3115 16.8842L100.286 37.8674C101.809 39.6973 102.322 42.1336 101.661 44.5032L101.133 44.3554L105.854 49.0762C106.423 49.6455 106.423 50.5697 105.854 51.1427L102.079 54.9172C102.767 56.1963 103.321 57.5419 103.743 58.9282H109.077C109.883 58.9282 110.537 59.5826 110.537 60.3885V70.1259C110.537 70.9318 109.883 71.5862 109.077 71.5862H103.743C103.325 72.9762 102.767 74.3181 102.079 75.5973L105.854 79.3717C106.423 79.941 106.423 80.8652 105.854 81.4382L98.9663 88.3254C98.397 88.8948 97.4728 88.8948 96.8998 88.3254L93.1253 84.551C91.8462 85.2386 90.5006 85.7968 89.1106 86.2146V91.5491C89.1106 92.355 88.4562 93.0093 87.6503 93.0093H77.9129C77.1069 93.0093 76.4526 92.355 76.4526 91.5491V86.2146C75.0626 85.7968 73.7206 85.2386 72.4379 84.551L68.6634 88.3254C68.0941 88.8948 67.1699 88.8948 66.5969 88.3254L59.7097 81.4382C59.4361 81.1647 59.2808 80.7913 59.2808 80.4068C59.2808 80.0224 59.4361 79.649 59.7097 79.3754L63.4841 75.6009C62.7965 74.3218 62.2383 72.9799 61.8206 71.5899H56.486C55.6801 71.5899 55.0258 70.9355 55.0258 70.1296V60.3922C55.0258 59.5863 55.6801 58.9319 56.486 58.9319H62.815V61.8524H57.9463V68.6694H62.937C63.6098 68.6694 64.1976 69.1278 64.3566 69.7821C64.815 71.6564 65.5544 73.4383 66.5562 75.0908C66.9074 75.6675 66.815 76.4069 66.3418 76.8801L62.8113 80.4105L67.632 85.2312L71.1624 81.7007C71.6393 81.2238 72.3787 81.1351 72.9554 81.4863C74.6042 82.4881 76.3898 83.2275 78.2604 83.6859C78.9147 83.8449 79.3731 84.4327 79.3731 85.1055V90.0962H86.1901V85.1055C86.1901 84.4327 86.6485 83.8449 87.3028 83.6859C89.1734 83.2275 90.959 82.4881 92.6078 81.4863C93.1845 81.1388 93.9238 81.2275 94.4007 81.7007L97.9312 85.2312L102.752 80.4105L99.2214 76.8801C98.7445 76.4032 98.6558 75.6638 99.007 75.0908C100.009 73.442 100.748 71.6527 101.207 69.7821C101.366 69.1278 101.953 68.6694 102.626 68.6694H107.617V61.8524H102.626C101.953 61.8524 101.366 61.3903 101.207 60.7397C100.748 58.8691 100.009 57.0835 99.007 55.431C98.6558 54.8543 98.7482 54.115 99.2214 53.6418L102.752 50.1113L97.9312 45.2906L94.4007 48.8211C93.9238 49.298 93.1845 49.3867 92.6078 49.0355C90.959 48.0337 89.1734 47.2943 87.3028 46.8359C86.6485 46.6769 86.1901 46.0891 86.1901 45.4163V40.4256H79.3731V45.2943H76.4526V38.9654C76.4526 38.1594 77.1069 37.5051 77.9129 37.5051H80.0113L72.7335 30.3148L55.9794 29.4608C50.3223 29.9486 49.9022 31.7068 49.7431 32.373L49.7429 32.3739C49.388 33.8675 50.1976 35.4164 51.6246 35.9784L57.85 38.4257L66.7298 39.8378C68.874 40.178 70.8 41.4053 72.0163 43.2057C73.2325 45.006 73.6503 47.25 73.166 49.3683C72.3379 52.9949 69.0995 55.4902 65.4914 55.4902C65.0625 55.4902 64.63 55.4533 64.1938 55.383L55.155 53.8747L36.4971 53.128C30.8705 52.9025 25.4029 51.1612 20.6858 48.0929L13.3467 43.3537L12.6339 45.9672C12.4564 46.6141 11.8686 47.043 11.2254 47.043H11.2217ZM14.0999 40.5924L22.428 10.0596L27.9533 10.5441C32.4265 10.936 36.944 10.7844 41.3802 10.1005L58.2784 7.48685C60.7442 7.10608 63.2839 7.59776 65.4281 8.88056L82.16 18.8731L98.0009 39.6826C98.6155 40.423 98.9592 41.3091 99.0115 42.2342L98.9663 42.189C98.3933 41.6197 97.4691 41.6197 96.8998 42.189L93.1253 45.9635C91.8425 45.2758 90.5006 44.7176 89.1106 44.2999V38.9654C89.1106 38.1594 88.4562 37.5051 87.6503 37.5051H83.8482L84.0051 37.3462L74.3896 27.8453C74.1346 27.5939 73.7944 27.4461 73.4359 27.4276L56.0275 26.5403C55.9609 26.5367 55.8981 26.5367 55.8315 26.5403C52.4563 26.8213 47.8575 27.6605 46.8963 31.6974C46.205 34.5994 47.7762 37.6087 50.5525 38.6992L56.9258 41.202C57.0219 41.2389 57.1254 41.2648 57.229 41.2833L66.264 42.7214C67.6355 42.9395 68.8148 43.6899 69.5912 44.8397C70.3675 45.9894 70.6263 47.3646 70.3157 48.7176C69.7316 51.2685 67.2548 52.932 64.6744 52.4995L55.5432 50.9764C55.484 50.9653 55.4212 50.9579 55.362 50.9579L36.6117 50.2075C31.5138 50.0041 26.5563 48.4256 22.2717 45.6419L14.2052 40.4293L14.0999 40.5924ZM3.28087 42.2556L10.1829 43.8415L20.7077 5.23919L14.1532 3.28726L3.27717 42.2593L3.28087 42.2556ZM71.5797 65.2498C71.5797 71.4272 76.6037 76.4512 82.7811 76.4512C88.9585 76.4512 93.9825 71.4272 93.9825 65.2498C93.9825 59.0724 88.9585 54.0484 82.7811 54.0484C76.6037 54.0484 71.5797 59.0724 71.5797 65.2498ZM74.5039 65.2498C74.5039 60.6879 78.2155 56.9726 82.7811 56.9726C87.3429 56.9726 91.0583 60.6879 91.0583 65.2498C91.0583 69.8117 87.3429 73.527 82.7811 73.527C78.2192 73.527 74.5039 69.8117 74.5039 65.2498ZM32.0534 91.013C33.2918 91.6933 34.6485 92.0371 36.0201 92.0371C36.7964 92.0371 37.5801 91.9225 38.3491 91.7007C42.7298 90.4216 45.2548 85.819 43.9757 81.4383C43.3546 79.3163 41.9461 77.5603 40.0089 76.4993C38.0718 75.4383 35.8352 75.1943 33.7132 75.8117C29.3325 77.0908 26.8076 81.6933 28.0867 86.0741C28.7077 88.1961 30.1162 89.9521 32.0534 91.013ZM34.5339 78.6176C35.033 78.4734 35.5395 78.3995 36.0423 78.3995C36.9295 78.3995 37.8093 78.6213 38.6079 79.0612C39.8611 79.7488 40.7742 80.8837 41.1735 82.2553C42.0015 85.0907 40.3675 88.0667 37.5321 88.8948C36.1605 89.294 34.7114 89.1387 33.4582 88.4511C32.2049 87.7635 31.2918 86.6286 30.8926 85.2571C30.0645 82.4216 31.6985 79.4457 34.5339 78.6176ZM37.4881 103.948C37.2441 103.948 37.0038 103.889 36.7857 103.767C36.4456 103.582 36.1942 103.268 36.087 102.895L35.0926 99.4825C34.2201 99.4603 33.3514 99.3642 32.4937 99.1979L30.7858 102.314C30.3976 103.02 29.5104 103.279 28.8006 102.891L22.6343 99.5084C22.2941 99.3236 22.0428 99.0093 21.9356 98.6359C21.8283 98.2626 21.8727 97.8633 22.0575 97.5232L23.7692 94.4068C23.1666 93.7709 22.6195 93.0907 22.1315 92.3661L18.7193 93.3606C18.3496 93.4678 17.9467 93.4234 17.6066 93.2386C17.2665 93.0537 17.0151 92.7395 16.9079 92.3661L14.9375 85.6157C14.7119 84.8431 15.1556 84.0298 15.9319 83.8043L20.4051 82.4993L21.2221 85.3052L18.1537 86.1998L19.3071 90.148L22.3755 89.2534C23.0224 89.0648 23.7137 89.3421 24.0501 89.9262C24.7267 91.0944 25.5732 92.1517 26.5714 93.0648C27.0668 93.5195 27.1887 94.2552 26.8671 94.8467L25.3292 97.6526L28.9337 99.6304L30.4715 96.8245C30.7969 96.233 31.4808 95.9409 32.1314 96.1147C33.4364 96.4659 34.782 96.6175 36.1351 96.5546C36.7968 96.525 37.4142 96.9613 37.6027 97.6045L38.4974 100.673L42.4456 99.5232L41.5509 96.4511C41.3624 95.8042 41.6397 95.1129 42.2238 94.7765C43.392 94.0999 44.4492 93.2534 45.3624 92.2552L47.5176 94.2293C46.6637 95.1609 45.7099 95.989 44.6674 96.6951L45.6618 100.107C45.769 100.481 45.7247 100.88 45.5398 101.22C45.355 101.56 45.0407 101.812 44.6674 101.919L37.9133 103.889C37.7802 103.93 37.6434 103.948 37.5029 103.948H37.4881ZM51.78 96.1848L51.787 96.1886L51.7759 96.1923L51.78 96.1848ZM55.1585 90.026L51.78 96.1848L49.2251 94.7838L51.9053 89.8966L49.0994 88.3587C48.5079 88.0371 48.2158 87.3495 48.3896 86.6989C48.7408 85.3939 48.8886 84.0445 48.8295 82.6952C48.7999 82.0224 49.2324 81.4198 49.8794 81.2275L52.9478 80.3329L51.7943 76.3847L48.726 77.2793C48.079 77.4642 47.3877 77.1906 47.0513 76.6065C46.3748 75.4383 45.5282 74.381 44.5301 73.4679C44.0347 73.0132 43.9127 72.2775 44.2343 71.686L45.7722 68.8801L42.1678 66.9023L40.6299 69.7082C40.3046 70.296 39.6207 70.5881 38.97 70.418C37.6651 70.0668 36.3194 69.9226 34.9664 69.9781C34.2972 70.015 33.6873 69.5751 33.4987 68.9282L32.6041 65.8598L28.6559 67.0095L29.5505 70.0816C29.7391 70.7285 29.4618 71.4198 28.8777 71.7563C27.7095 72.4328 26.6522 73.2794 25.7391 74.2775C25.2844 74.7766 24.5487 74.8949 23.9609 74.5732L21.155 73.0354L19.1772 76.6398L21.9831 78.1777L20.5783 80.7396L16.4896 78.4993C16.1495 78.3144 15.8981 78.0002 15.7909 77.6268C15.6837 77.2534 15.7244 76.8542 15.9129 76.5141L19.2955 70.3478C19.6837 69.6417 20.5709 69.3829 21.2807 69.7711L24.3971 71.4827C25.033 70.8801 25.7132 70.333 26.4378 69.845L25.4433 66.4328C25.3361 66.0594 25.3805 65.6602 25.5653 65.3201C25.7502 64.98 26.0644 64.7286 26.4378 64.6214L33.1919 62.651C33.5653 62.5438 33.9645 62.5881 34.3046 62.773C34.6448 62.9578 34.8961 63.272 35.0033 63.6454L35.9978 67.0576C36.8702 67.0798 37.739 67.1759 38.5967 67.3422L40.3046 64.2258C40.6928 63.5197 41.58 63.2609 42.2898 63.6491L48.4561 67.0317C48.7962 67.2166 49.0476 67.5308 49.1548 67.9042C49.262 68.2775 49.2177 68.6768 49.0328 69.0169L47.3212 72.1333C47.9238 72.7692 48.4709 73.4494 48.9589 74.174L52.3711 73.1795C52.7407 73.0723 53.1437 73.1167 53.4838 73.3015C53.8239 73.4864 54.0753 73.8006 54.1825 74.174L56.1529 80.9244C56.3784 81.697 55.9348 82.5103 55.1585 82.7358L51.7463 83.7303C51.7204 84.6027 51.628 85.4715 51.4616 86.3292L54.5818 88.0408C54.9219 88.2256 55.1732 88.5399 55.2805 88.9132C55.3877 89.2866 55.3433 89.6859 55.1585 90.026ZM6.81478 83.2682C6.81478 99.1128 19.7056 112 35.5466 112V111.996C43.8998 111.996 51.3227 108.851 58.4977 105.81L58.5113 105.804C64.6554 103.198 70.4594 100.739 76.5518 100.303L76.3448 97.3901C69.7681 97.8633 63.465 100.532 57.3689 103.117C50.4559 106.048 43.3099 109.076 35.5429 109.076C21.3138 109.076 9.73528 97.501 9.73528 83.2682C9.73528 72.869 15.9201 63.5345 25.4394 59.5087L31.1843 57.3645L30.164 54.6289L24.3599 56.7952C13.702 61.3054 6.81478 71.6972 6.81478 83.2682Z" fill="url(#paint0_linear_1562_5471)"></path><defs><linearGradient id="paint0_linear_1562_5471" x1="81.4521" y1="-0.000730597" x2="6.95251" y2="97.5716" gradientUnits="userSpaceOnUse"><stop stop-color="#FECC0C"></stop><stop offset="1" stop-color="#E44E9C"></stop></linearGradient></defs></svg>