<svg xmlns="http://www.w3.org/2000/svg" width="104" height="121" viewBox="0 0 104 121" fill="none"><path fill-rule="evenodd" clip-rule="evenodd" d="M76.557 2.76595V33.2054H79.323V1.38298C79.323 0.619713 78.7032 0 77.94 0H12.9121V2.76595H76.557ZM47.963 96.8503H1.38298C0.619713 96.8503 0 96.2306 0 95.4674V10.6087C0 9.84539 0.619713 9.22568 1.38298 9.22568H51.4712C51.6988 9.22568 51.9229 9.2817 52.1259 9.39023L69.3729 18.6369C69.821 18.8785 70.1046 19.3477 70.1046 19.8553V38.7408H67.3387V21.8391L53.8447 26.8613C53.6872 26.9208 53.5226 26.9488 53.3616 26.9488C52.8294 26.9488 52.3252 26.6407 52.0976 26.126L48.1553 17.254L50.6831 16.1301L54.0968 23.8117L65.3603 19.6211L51.1281 11.9916H2.76595V94.0844H47.963V96.8503ZM58.1094 34.1262H38.7407V36.8922H58.1094V34.1262ZM38.7407 41.5068H48.8872V44.2727H38.7407V41.5068ZM31.8226 48.8873H15.2199C14.4566 48.8873 13.8369 48.2676 13.8369 47.5043V30.9016C13.8369 30.1384 14.4566 29.5186 15.2199 29.5186H27.2115V32.2846H16.6029V46.1214H30.4396V41.9724H33.2056V47.5078C33.2056 48.2711 32.5859 48.8908 31.8226 48.8908V48.8873ZM22.9012 42.3716C23.1568 42.6867 23.5384 42.8758 23.9831 42.8898L23.9796 42.8933C24.3717 42.8933 24.7463 42.7252 25.0089 42.4346L33.3103 33.2124L31.2551 31.3603L24.0426 39.371L21.3712 36.0309L19.2109 37.7605L22.9012 42.3716ZM31.8226 77.4782H15.2199C14.4566 77.4782 13.8369 76.8584 13.8369 76.0952V59.4925C13.8369 58.7292 14.4566 58.1095 15.2199 58.1095H27.2115V60.8754H16.6029V74.7122H30.4396V70.5633H33.2056V76.0987C33.2056 76.862 32.5859 77.4817 31.8226 77.4817V77.4782ZM22.9012 70.9659C23.1568 71.281 23.5384 71.47 23.9831 71.4841L23.9796 71.4875C24.3717 71.4875 24.7463 71.3195 25.0089 71.0289L33.3103 61.8067L31.2551 59.9546L24.0426 67.9653L21.3712 64.6252L19.2109 66.3548L22.9012 70.9659ZM82.5969 101.276C91.518 101.276 95.3693 95.919 95.5304 95.688C95.8875 95.1803 95.8595 94.4975 95.4709 94.0179C90.0213 87.3468 90.4813 82.7435 91.1777 75.7764L91.1784 75.7696C91.455 73.0212 91.7666 69.9051 91.7666 66.2148C91.7666 59.0794 87.5651 51.1701 78.1959 49.36C75.2094 46.5591 69.2784 43.9822 64.0721 44.3638C50.806 45.3301 43.6495 55.8583 43.6495 65.273C43.6495 68.5046 43.8456 71.3791 44.0207 73.9175L44.0232 73.9553C44.3756 79.1402 44.6541 83.2373 43.1104 87.4181L45.7047 88.3774C47.4553 83.6298 47.1437 79.0432 46.7796 73.7284C46.6081 71.2355 46.4155 68.4101 46.4155 65.273C46.4155 57.1047 52.6756 47.9665 64.2716 47.1227C69.2819 46.7586 74.5582 49.5841 76.5434 51.6113C76.7464 51.8179 77.0125 51.9579 77.2996 52.0069C86.5358 53.579 89.0006 61.6738 89.0006 66.2113C89.0006 69.7615 88.696 72.8041 88.4264 75.4895L88.4254 75.4998C87.7187 82.574 87.2001 87.7647 92.6034 94.8442C91.3149 96.1186 88.1113 98.5764 82.4079 98.4994L82.3799 101.265H82.6004L82.5969 101.276ZM35.1625 120.35H32.3966H32.3931C32.3931 107.862 39.7981 106.641 46.1786 105.588C47.9979 105.288 49.7338 105.002 51.191 104.472C56.0052 102.725 59.1598 101.265 59.1598 97.0779V95.9064C53.9591 92.0712 49.9375 85.1569 49.9375 78.5005V71.7852C49.9375 71.1585 50.3576 70.6123 50.9599 70.4478C51.1209 70.4057 67.0584 66.0362 72.2822 59.3769C72.5518 59.0338 72.9544 58.8588 73.4061 58.8483C73.8437 58.8588 74.2499 59.0758 74.5019 59.433C79.8728 67.0411 84.4139 70.6613 84.4594 70.6963C84.792 70.9589 84.9881 71.3616 84.9881 71.7852V78.5005C84.9881 85.099 81.3144 91.2541 76.6834 95.0492V97.0814C76.6834 101.269 79.8205 102.729 84.6032 104.476C86.0675 105.011 87.8118 105.302 89.6393 105.607C96.0352 106.674 103.45 107.911 103.45 120.35H100.684H100.681C100.681 109.796 94.9055 109.003 89.1569 108.215C87.2491 107.953 85.3442 107.692 83.6543 107.074C82.3136 106.585 80.8714 106.058 79.5187 105.374C77.3757 109.926 72.9011 112.798 67.7725 112.798C62.7384 112.798 58.3403 109.989 56.1732 105.434C54.8522 106.086 53.4523 106.595 52.1471 107.07L52.1364 107.074C49.9528 107.868 47.7824 108.275 45.7595 108.654C39.8261 109.766 35.1625 110.64 35.1625 120.35ZM58.5534 103.985C60.4118 102.563 61.7761 100.584 61.9142 97.5857C63.6857 98.4475 65.5286 98.9336 67.349 98.9336C69.4643 98.9336 71.7339 98.2216 73.9175 96.9675V97.0814C73.9175 100.294 75.2629 102.395 77.1502 103.89C75.5199 107.647 71.918 110.032 67.7725 110.032C63.7335 110.032 60.2095 107.719 58.5534 103.985ZM73.2555 62.437C67.6116 68.0879 56.2047 71.7887 52.7034 72.8286V78.5005C52.7034 87.6002 60.9558 96.1641 67.349 96.1641C73.7422 96.1641 82.2186 87.4321 82.2186 78.5005V72.4329C80.9232 71.3196 77.422 68.0844 73.2555 62.437ZM68.8473 86.0807H67.5904C65.4862 86.0807 63.7741 84.3686 63.7741 82.2644V78.0664C63.7741 75.9097 62.4191 75.0134 61.6944 75.0134H57.7765C57.0133 75.0134 56.3936 74.3937 56.3936 73.6304C56.3936 72.8671 57.0133 72.2474 57.7765 72.2474H61.6944C64.0262 72.2474 66.54 74.4707 66.54 78.0664V82.2644C66.54 82.8421 67.0127 83.3147 67.5904 83.3147H68.8473C69.6106 83.3147 70.2303 83.9345 70.2303 84.6977C70.2303 85.461 69.6106 86.0807 68.8473 86.0807ZM72.5382 75.0134H76.2285C76.9918 75.0134 77.6115 74.3937 77.6115 73.6304C77.6115 72.8671 76.9918 72.2474 76.2285 72.2474H72.5382C71.775 72.2474 71.1553 72.8671 71.1553 73.6304C71.1553 74.3937 71.775 75.0134 72.5382 75.0134ZM76.6836 79.1902C76.6836 78.2764 75.9414 77.5342 75.0276 77.5342C74.1172 77.5342 73.375 78.2799 73.375 79.1902C73.375 80.1006 74.1137 80.8428 75.0276 80.8428C75.9414 80.8428 76.6836 80.1041 76.6836 79.1902ZM59.72 77.5342C60.6339 77.5342 61.3726 78.2765 61.3726 79.1903C61.3726 80.1041 60.6304 80.8428 59.72 80.8428C58.8097 80.8428 58.064 80.1006 58.064 79.1903C58.064 78.28 58.8062 77.5342 59.72 77.5342ZM71.4943 91.504C70.3915 92.3443 68.942 92.7609 67.5205 92.7609V92.7574C66.0605 92.7574 64.6285 92.3128 63.6411 91.4305C63.074 90.9193 63.0249 90.0475 63.5326 89.4768C64.0438 88.9096 64.9156 88.8571 65.4863 89.3682C66.4316 90.2155 68.6619 90.1805 69.8208 89.2982C70.43 88.8361 71.2983 88.9551 71.7604 89.5643C72.2226 90.1735 72.1036 91.0418 71.4943 91.504Z" fill="url(#paint0_linear_1456_292)"></path><defs><linearGradient id="paint0_linear_1456_292" x1="88" y1="4" x2="-3.03943" y2="117.563" gradientUnits="userSpaceOnUse"><stop stop-color="#FECC0C"></stop><stop offset="1" stop-color="#E44E9C"></stop></linearGradient></defs></svg>