<svg xmlns="http://www.w3.org/2000/svg" width="112" height="99" viewBox="0 0 112 99" fill="none"><path fill-rule="evenodd" clip-rule="evenodd" d="M18.674 84.0303V23.3414H12.1887C10.6151 23.3414 9.33573 24.6208 9.33573 26.1944V84.0304H6.5359V26.1944C6.5359 23.0756 9.06992 20.5416 12.1887 20.5416H18.674V1.39992C18.674 0.627304 19.3013 0 20.0739 0H93.8335C94.6061 0 95.2334 0.627304 95.2334 1.39992V20.5416H101.718C104.833 20.5416 107.371 23.0756 107.371 26.1944V59.7534H104.571V26.1944C104.571 24.6208 103.292 23.3414 101.718 23.3414H95.2334V59.7533H92.4336V2.79983H21.4738V84.0303H18.674ZM40.317 35.6216H40.0193C33.523 35.4692 28.0793 30.0645 27.8773 23.5753C27.771 20.1127 29.0575 16.8557 31.4958 14.4067C33.9341 11.9577 37.1947 10.6606 40.6502 10.7563C41.4086 10.7776 42.0111 11.3978 42.0111 12.1562V22.3526L49.0107 30.2098C49.5104 30.7733 49.4785 31.631 48.9363 32.152C46.6007 34.3989 43.5493 35.6252 40.3135 35.6252L40.317 35.6216ZM39.2148 13.6093C37.0494 13.8503 35.0505 14.8107 33.484 16.3808C31.595 18.2768 30.5992 20.8002 30.6807 23.4867C30.8366 28.5157 35.0541 32.7013 40.0867 32.8182C42.2202 32.8679 44.2687 32.2264 45.9663 30.993L39.5692 23.8127C39.3424 23.554 39.2148 23.2244 39.2148 22.8806V13.6093ZM51.7467 28.2216L49.2233 27.006C49.8258 25.7584 50.1306 24.4188 50.1306 23.0224C50.1306 19.2196 47.8447 15.8598 44.3041 14.467L45.3319 11.8621C49.9499 13.6802 52.9304 18.0607 52.9304 23.0259C52.9304 24.8476 52.5335 26.5984 51.7467 28.2251V28.2216ZM11.0325 98.9687L0 98.9687V96.1688H4.44281C2.84722 94.5185 1.86395 92.2724 1.86395 89.8001V89.1622C1.86395 88.3896 2.49125 87.7623 3.26386 87.7623H57.8889V90.5621H4.7134C5.09261 93.7128 7.78258 96.1653 11.0325 96.1653V96.1688H69.3605C63.0671 92.5362 58.8213 85.7355 58.8213 77.9629V64.8923C58.8213 64.1197 59.4487 63.4924 60.2213 63.4924H99.4366C100.209 63.4924 100.837 64.1197 100.837 64.8923V68.5982C102.173 68.0198 103.731 67.7529 105.234 67.9012C107.722 68.1386 109.813 69.4641 111.114 71.6366C112.386 73.756 112.283 76.6338 110.837 79.5293C109.045 83.1218 104.636 87.5426 98.0376 88.4304C96.1851 91.6396 93.5086 94.3162 90.299 96.1688H111.107V98.9687H79.8725L79.8307 98.9687H79.8289H79.8272L79.7854 98.9687L11.0325 98.9687ZM99.5239 85.2747C103.764 84.0983 106.93 81.0883 108.332 78.2818C109.342 76.2581 109.48 74.362 108.711 73.0791C107.641 71.2964 106.085 70.7967 104.968 70.6904C103.32 70.5274 101.725 71.1169 100.837 71.8314V77.9629C100.837 80.5329 100.373 82.9966 99.5239 85.2747ZM61.6247 66.2887V77.9594C61.6247 87.9998 69.7938 96.1653 79.8307 96.1653C89.8676 96.1653 98.0367 87.9962 98.0367 77.9594V66.2887H61.6247ZM84.4975 57.4213C83.7248 57.4213 83.0975 56.794 83.0975 56.0214V51.3538C83.0975 50.5812 83.7248 49.9539 84.4975 49.9539C85.2701 49.9539 85.8974 50.5812 85.8974 51.3538V56.0214C85.8974 56.794 85.2701 57.4213 84.4975 57.4213ZM74.6951 58.8212C74.6951 59.5938 75.3224 60.2211 76.095 60.2211C76.8676 60.2211 77.4949 59.5938 77.4949 58.8212V46.6827C77.4949 45.9101 76.8676 45.2828 76.095 45.2828C75.3224 45.2828 74.6951 45.9101 74.6951 46.6827V58.8212ZM53.6858 75.6273H31.2766C30.504 75.6273 29.8767 75 29.8767 74.2274V41.5474H32.6765V72.824H53.6858V75.6238V75.6273ZM36.5006 64.4032L39.1267 65.3778V65.3742C40.4735 61.738 45.3573 51.3503 49.9504 51.3503C52.1619 51.3503 53.257 52.1619 54.5223 53.101C56.0781 54.2564 57.8466 55.5642 61.3517 55.068C68.1564 54.0969 81.064 23.4335 84.8597 14.0594L82.2619 13.0103C74.6102 31.918 64.5485 51.7826 60.9548 52.2965C58.5909 52.6332 57.5844 51.889 56.1915 50.8541L56.1815 50.8466C54.801 49.8236 53.0828 48.5504 49.9504 48.5504C42.5893 48.5504 37.1031 62.78 36.5006 64.4032Z" fill="url(#paint0_linear_1562_5455)"></path><defs><linearGradient id="paint0_linear_1562_5455" x1="82.5298" y1="-0.000645592" x2="19.5657" y2="94.5567" gradientUnits="userSpaceOnUse"><stop stop-color="#FECC0C"></stop><stop offset="1" stop-color="#E44E9C"></stop></linearGradient></defs></svg>