<svg xmlns="http://www.w3.org/2000/svg" width="100" height="114" viewBox="0 0 100 114" fill="none"><path fill-rule="evenodd" clip-rule="evenodd" d="M27.4352 27.042C26.4199 13.5063 35.0749 8.65367 38.7056 6.75952V4.04959C38.7056 3.36335 39.2098 2.78215 39.889 2.68061C42.7005 2.26747 45.9496 2.89419 47.9313 3.40536V2.38301C47.9313 1.98738 48.0994 1.61275 48.3935 1.35016C48.6876 1.08757 49.0832 0.958022 49.4718 1.00704C55.1823 1.65826 59.4608 7.22168 59.6428 7.45976L59.4272 7.62334C68.5248 10.0855 73.7909 20.3236 72.8706 28.6035L70.1186 28.2989C70.9519 20.8169 65.7176 11.4126 57.4688 10.0262L57.6452 8.9754L57.4371 9.13333C57.4056 9.09132 54.4961 5.32752 50.6973 4.0951V5.247C50.6973 5.69515 50.4802 6.1153 50.1161 6.37438C49.7519 6.63347 49.2828 6.7 48.8626 6.55645L48.861 6.55591C48.7615 6.52257 44.8942 5.22668 41.4751 5.31702V7.59631C41.4751 8.10748 41.1915 8.57664 40.7433 8.81823L40.2637 9.07031C36.983 10.7719 29.2944 14.7633 30.2012 26.8354L27.4422 27.042H27.4352ZM40.0885 33.2356H44.6996C45.4629 33.2356 46.0826 32.6159 46.0826 31.8527C46.0826 31.0894 45.4629 30.4697 44.6996 30.4697H40.0885C39.3253 30.4697 38.7056 31.0894 38.7056 31.8527C38.7056 32.6159 39.3253 33.2356 40.0885 33.2356ZM49.3107 44.3064H49.8674L49.8639 44.3099C51.8491 44.3099 53.4596 42.6959 53.4596 40.7142V35.9596C53.4596 34.0794 54.2509 33.2391 56.0295 33.2391H59.4537C60.217 33.2391 60.8367 32.6194 60.8367 31.8561C60.8367 31.0929 60.217 30.4732 59.4537 30.4732H56.0295C52.6894 30.4732 50.6937 32.5249 50.6937 35.9596V40.7142C50.6937 41.1693 50.3226 41.5405 49.8674 41.5405H49.3107C48.5474 41.5405 47.9277 42.1602 47.9277 42.9235C47.9277 43.6867 48.5474 44.3064 49.3107 44.3064ZM49.4333 51.7325C48.2114 51.7325 46.986 51.3509 45.9321 50.5876C45.3124 50.1395 45.1758 49.2747 45.624 48.6549C46.0721 48.0352 46.9369 47.8987 47.5567 48.3468C48.6981 49.1766 50.1581 49.1801 51.2749 48.3538C51.8876 47.8987 52.7559 48.0282 53.2111 48.6409C53.6663 49.2536 53.5367 50.1219 52.924 50.5771C51.8876 51.3474 50.6622 51.7325 49.4368 51.7325H49.4333ZM16.5254 72.5541L18.7487 74.2032V74.1962C21.2975 70.758 25.3624 68.1636 31.9307 65.7863C33.6699 65.1574 35.5833 64.4646 37.237 63.4361C39.4816 68.1879 44.5546 71.5108 49.8046 71.5108H49.8081C54.9862 71.5108 59.6637 68.4247 61.8331 63.7071C63.3776 64.5913 65.1056 65.2176 66.6894 65.7916L66.6895 65.7916L66.6941 65.7933C73.5495 68.2757 77.7229 71.0241 80.2298 74.7004V74.7039L82.516 73.1458C79.6626 68.9584 75.0725 65.8878 67.6359 63.1954C62.9758 61.5043 59.9193 60.0969 59.9193 56.0705V54.6394C63.436 51.8227 66.2159 47.7705 67.0418 43.1417C69.3984 42.9726 71.3221 41.1477 71.5888 38.764L71.6728 38.0078C71.8059 36.7963 71.4172 35.5814 70.6049 34.6711C69.7927 33.7608 68.6233 33.2391 67.4048 33.2391H67.2932V29.0797C67.2932 28.6841 67.1251 28.3094 66.831 28.0468L55.7777 18.2085C55.305 17.7848 54.6013 17.7428 54.0796 18.0999C53.9991 18.1559 46.0443 23.5233 33.1949 27.7703C32.6277 27.9558 32.2461 28.4845 32.2461 29.0832V33.2356H31.9206C30.6987 33.2356 29.5328 33.7573 28.7205 34.6676C27.9082 35.5744 27.5196 36.7928 27.6526 38.0043L27.7366 38.764C28.0123 41.224 30.0578 43.0907 32.5218 43.1496C33.3011 47.5777 35.6625 51.4269 38.7055 54.1963V56.0635C38.7055 60.0934 35.649 61.5008 30.9889 63.1884C23.8779 65.7653 19.4174 68.6538 16.5254 72.5541ZM41.4689 56.2997C41.4192 58.6024 40.6407 60.3041 39.4647 61.612C41.0699 65.7032 45.4389 68.7413 49.8046 68.7413C54.1369 68.7413 57.9409 66.0607 59.5448 62.0186C58.1935 60.6988 57.262 58.949 57.1622 56.5101C54.6253 57.9471 51.8966 58.7629 49.3355 58.7629L49.339 58.7699C46.7298 58.7699 43.981 57.8767 41.4689 56.2997ZM32.2495 40.3463C32.2472 40.2288 32.2461 40.111 32.2461 39.993V36.0016H31.9206C31.4794 36.0016 31.0768 36.1801 30.7827 36.5092C30.4886 36.8383 30.3555 37.2585 30.4046 37.6961L30.4886 38.4559C30.5963 39.4223 31.3236 40.1777 32.2495 40.3463ZM67.2932 36.0051V40.2982C68.1137 40.0584 68.7377 39.3454 68.8368 38.4559L68.9209 37.6997C68.9699 37.262 68.8368 36.8419 68.5427 36.5127C68.2486 36.1836 67.846 36.0051 67.4048 36.0051H67.2932ZM42.5254 35.0668C41.6501 35.0668 40.9429 35.774 40.9429 36.6493C40.9429 37.5246 41.6501 38.2318 42.5254 38.2318C43.4007 38.2318 44.108 37.5246 44.108 36.6493C44.108 35.774 43.4007 35.0668 42.5254 35.0668ZM55.9492 36.6493C55.9492 35.774 56.6565 35.0668 57.5318 35.0668C58.4071 35.0668 59.1143 35.774 59.1143 36.6493C59.1143 37.5246 58.4071 38.2318 57.5318 38.2318C56.6565 38.2318 55.9492 37.5246 55.9492 36.6493ZM35.012 39.9965V30.081H35.0155C45.3511 26.5623 52.3255 22.4869 54.7273 20.9814L64.5307 29.7064V40.3221C64.5307 49.4182 55.4556 56.004 49.339 56.004C42.8477 56.004 35.012 48.865 35.012 39.9965ZM19.792 112.492C21.1189 113.119 22.5404 113.438 23.9689 113.438L23.9759 113.434C25.0928 113.434 26.2132 113.242 27.302 112.853L48.1717 105.093L70.9656 112.86C72.044 113.245 73.1609 113.438 74.2708 113.438L74.2673 113.434C75.6992 113.434 77.1207 113.119 78.4512 112.489C80.7865 111.382 82.5581 109.446 83.4509 107.024L86.539 101.05L84.0811 99.7795L80.9546 105.833C80.9265 105.886 80.902 105.942 80.881 106.001C80.2473 107.769 78.9659 109.187 77.2678 109.989C75.5697 110.794 73.6615 110.889 71.8759 110.248L52.2735 103.568L68.1856 97.6508C68.8928 97.3882 69.2605 96.6004 69.0049 95.8897L65.6085 86.3955L68.9207 83.716C72.2889 80.992 76.1052 78.4467 78.8641 80.2113L78.8859 80.2241C78.9217 80.2451 78.9594 80.2674 78.9972 80.2848L84.5326 83.0192C85.5619 84.1011 86.8504 86.3909 88.1773 89.507C88.2229 89.612 88.2544 89.6925 88.2789 89.7626C88.1942 89.8099 88.0936 89.8607 87.9959 89.9101C87.9563 89.9301 87.9171 89.9499 87.8797 89.9691L87.8643 89.977L87.8637 89.9773C87.6683 90.0767 87.4531 90.1862 87.218 90.3122L85.2853 91.3521C84.7286 91.6532 84.0494 91.5937 83.5803 91.2331L80.1316 88.3971C79.9355 88.236 79.7009 88.131 79.4488 88.096C77.2676 87.7809 74.2811 87.9699 71.4486 88.5896L72.0403 91.2926C74.7747 90.6904 77.1906 90.6344 78.6821 90.7884L81.8507 93.3968C82.6314 94.0025 83.5768 94.3106 84.5256 94.3106H84.5291C85.2398 94.3106 85.9506 94.1391 86.5983 93.7889L88.531 92.7491C88.739 92.6383 88.9309 92.5405 89.1037 92.4524L89.1046 92.452L89.1262 92.441L89.1282 92.4399C90.2799 91.8588 91.8494 91.0669 90.7262 88.4251C89.1507 84.7243 87.6662 82.1894 86.3147 80.887C86.2132 80.7855 86.0976 80.7049 85.9681 80.6419L80.2891 77.8374C75.4912 74.8453 69.8888 79.3737 67.1844 81.5596L67.1806 81.5627L64.6205 83.6338C64.3604 82.9205 63.5705 82.5515 62.8568 82.8092L51.0288 87.0396L36.3952 81.8078C35.6753 81.5492 34.8857 81.9219 34.6286 82.6405L32.0672 80.5684L32.0667 80.568C29.3636 78.3831 23.7551 73.8498 18.9587 76.8431L13.2798 79.6476C13.1537 79.7106 13.0347 79.7911 12.9331 79.8892C11.5817 81.1916 10.0972 83.7265 8.52162 87.4273C7.51677 89.7871 8.4621 92.483 10.7169 93.7014L12.6495 94.7413C12.9997 94.9303 13.3428 95.0109 13.6719 95.0109V95.0214C14.9183 95.0214 15.9827 93.873 16.6759 93.1237L16.713 93.0842C16.9672 92.8131 17.2249 92.5384 17.4252 92.3815C17.4252 92.3815 20.5378 89.8221 20.5518 89.8221C21.3605 89.8221 22.4039 90.1372 23.5873 90.4978L23.6876 90.528C24.5346 90.7833 25.4884 91.0707 26.5458 91.3031L27.1375 88.6002C26.1467 88.3796 25.2539 88.11 24.3926 87.8474L24.3835 87.8446C22.7033 87.3346 21.2564 86.8955 19.7955 87.1051C19.5434 87.1402 19.3088 87.2452 19.1128 87.4062L15.6956 90.2177C15.3385 90.4943 15.0023 90.8549 14.6487 91.2366L14.6079 91.2803C14.3528 91.5534 13.9586 91.9754 13.6964 92.1679L12.0298 91.2681C11.039 90.7324 10.6258 89.549 11.067 88.5126C12.3939 85.3931 13.6824 83.1068 14.7117 82.0249L20.2507 79.2905C20.2962 79.2695 20.3417 79.2449 20.3837 79.2169C23.1426 77.4488 26.959 79.9942 30.3271 82.7181L33.6416 85.3995L30.4177 94.4114L28.6535 95.0424L29.5848 97.6473L62.4856 85.8832L65.9378 95.5395L26.3497 110.259C24.5816 110.889 22.6734 110.794 20.9754 109.993C19.2773 109.187 17.9958 107.773 17.3621 106.005L17.3529 105.981C17.3418 105.953 17.3303 105.923 17.3166 105.896L14.5472 99.8425L12.0298 100.994L14.7782 106.995C15.6675 109.432 17.4461 111.382 19.792 112.492ZM33.7869 93.2064L46.9209 88.5088L36.7663 84.8784L33.7869 93.2064ZM11.4162 7.16271L9.61621 9.26282L16.7592 15.3851L18.5592 13.285L11.4162 7.16271ZM-0.000488281 27.5454L0.81107 24.8975L9.80581 27.6544L8.99425 30.3023L-0.000488281 27.5454ZM88.1873 7.1572L81.0464 13.282L82.8471 15.3815L89.988 9.25668L88.1873 7.1572ZM89.7988 27.6579L98.7941 24.9026L99.6052 27.5507L90.6099 30.3059L89.7988 27.6579ZM9.12333 43.4644L0.00830078 45.7929L0.692891 48.4728L9.80792 46.1443L9.12333 43.4644ZM4.25488 64.6121L12.26 59.67L13.713 62.0236L5.7079 66.9657L4.25488 64.6121ZM90.4341 43.4732L89.749 46.153L98.8636 48.4831L99.5487 45.8033L90.4341 43.4732ZM85.8271 62.018L87.2802 59.6644L95.2852 64.6065L93.8322 66.9601L85.8271 62.018Z" fill="url(#paint0_linear_1456_224)"></path><defs><linearGradient id="paint0_linear_1456_224" x1="82.9998" y1="-30" x2="-8.48249" y2="-12.9428" gradientUnits="userSpaceOnUse"><stop stop-color="#FECC0C"></stop><stop offset="1" stop-color="#E44E9C"></stop></linearGradient></defs></svg>