<svg xmlns="http://www.w3.org/2000/svg" width="109" height="98" viewBox="0 0 109 98" fill="none"><path fill-rule="evenodd" clip-rule="evenodd" d="M92.2356 86.7003H107.455C108.219 86.7003 108.838 87.32 108.838 88.0833V88.7135C108.838 93.7062 104.777 97.7711 99.7808 97.7711H9.05762C4.0649 97.7711 0 93.7097 0 88.7135V88.0833C0 87.32 0.619713 86.7003 1.38298 86.7003H16.6025V1.38298C16.6025 0.619713 17.2223 0 17.9855 0H90.8526C91.6158 0 92.2356 0.619713 92.2356 1.38298V86.7003ZM89.4696 86.7003V2.76595H19.3685V86.7003H89.4696ZM4.61475 82.5514H7.3807V25.8774C7.3807 24.3229 8.64463 23.0589 10.1992 23.0589H12.4539V20.293H10.1992C7.11811 20.293 4.61475 22.7963 4.61475 25.8774V82.5514ZM9.05412 95.0052C5.84351 95.0052 3.1861 92.5823 2.81147 89.4698H106.027C105.656 92.5823 102.995 95.0052 99.7843 95.0052H9.05412ZM104.227 82.5514H101.461V25.8774C101.461 24.3229 100.197 23.0589 98.643 23.0589H96.3882V20.293H98.643C101.724 20.293 104.227 22.7963 104.227 25.8774V82.5514ZM79.3236 12.7059H66.4111V15.4718H79.3236V12.7059ZM76.498 22.8524H79.3235V25.6183H76.498V22.8524ZM73.6761 22.8524H66.4111V25.6183H73.6761V22.8524ZM66.4111 32.9988H79.3236V35.7648H66.4111V32.9988ZM77.9402 78.4025H29.9772C29.214 78.4025 28.5942 77.7828 28.5942 77.0195V46.58H31.3602V75.6365H77.9402V78.4025ZM46.1216 70.5633H48.8875V64.1071C48.8875 63.3438 48.2678 62.7241 47.5046 62.7241H38.2824C37.5191 62.7241 36.8994 63.3438 36.8994 64.1071V70.5633H39.6654V65.4901H46.1216V70.5633ZM64.5658 70.5633H61.7998V59.9546H55.3436V70.5633H52.5776V58.5716C52.5776 57.8084 53.1973 57.1887 53.9606 57.1887H63.1828C63.9461 57.1887 64.5658 57.8084 64.5658 58.5716V70.5633ZM77.4819 53.4984V70.5632H80.2479V52.1154C80.2479 51.3521 79.6282 50.7324 78.8649 50.7324H69.6427C68.8795 50.7324 68.2598 51.3521 68.2598 52.1154V70.5632H71.0257V53.4984H77.4819ZM54.5348 32.0395L52.2416 30.4885C53.53 28.5803 54.2127 26.3501 54.2127 24.0393C54.2127 18.5774 50.3369 13.8263 44.9976 12.7339L45.5508 10.024C52.175 11.3754 56.9822 17.2715 56.9822 24.0393C56.9822 26.9068 56.1384 29.6727 54.5383 32.0395H54.5348ZM40.7329 39.0839H40.8869C44.7453 39.0839 48.397 37.6169 51.1805 34.9385C51.7161 34.4238 51.7477 33.5765 51.254 33.0198L42.634 23.3425V10.7837C42.634 10.0344 42.0388 9.4217 41.2896 9.40069C37.1336 9.27115 33.2298 10.8502 30.3133 13.8052C27.3968 16.7602 25.8808 20.6781 26.0453 24.8375C26.3569 32.6137 32.9462 39.0034 40.7329 39.0839ZM32.2845 15.7484C34.3397 13.6687 36.9936 12.4362 39.8681 12.2017L39.8716 12.1982V23.8677C39.8716 24.2073 39.9941 24.5329 40.2217 24.7885L48.2605 33.8111C46.1212 35.4602 43.4673 36.332 40.7644 36.3145C34.4272 36.2514 29.0669 31.0521 28.8148 24.7255C28.6782 21.3398 29.9107 18.1502 32.2845 15.7484Z" fill="url(#paint0_linear_1456_208)"></path><defs><linearGradient id="paint0_linear_1456_208" x1="109" y1="-1.284e-06" x2="10.381" y2="99.8576" gradientUnits="userSpaceOnUse"><stop stop-color="#FECC0C"></stop><stop offset="1" stop-color="#E44E9C"></stop></linearGradient></defs></svg>