<svg xmlns="http://www.w3.org/2000/svg" width="120" height="82" viewBox="0 0 120 82" fill="none"><path fill-rule="evenodd" clip-rule="evenodd" d="M18.9754 51.2955C16.1588 51.2955 13.1567 50.5578 10.3243 48.4355C6.47487 45.5484 6.20991 40.8711 6.01662 37.4589L6.01651 37.4569L6.01257 37.3884C5.93914 36.112 5.87006 34.9111 5.62202 34.1708C5.50762 33.8316 5.12891 33.0663 4.72654 32.2576L4.72059 32.2456C1.91122 26.5953 -5.52903 11.6311 7.22364 2.28046C18.6046 -6.06295 36.7629 10.0716 49.994 25.0779L47.6547 27.1411C39.5006 17.8903 19.4133 -2.80054 9.0659 4.79729C-1.57343 12.6003 4.79754 25.4014 7.51951 30.869C8.03234 31.8986 8.39921 32.6402 8.58462 33.1886C8.96355 34.3253 9.04461 35.7407 9.13043 37.2391L9.13296 37.2833C9.30654 40.3958 9.50772 43.9265 12.1981 45.9423C19.3791 51.3329 28.6858 45.1346 29.0669 44.8808L29.0782 44.8733L30.8653 47.4296C30.5457 47.6544 25.232 51.2995 18.9794 51.2995L18.9754 51.2955ZM89.1347 47.4256C89.4542 47.6505 94.764 51.2955 101.021 51.2955V51.2916C103.837 51.2916 106.843 50.5539 109.672 48.4316C113.521 45.5445 113.786 40.8672 113.979 37.455L113.98 37.453L113.983 37.3922V37.3921C114.057 36.1092 114.125 34.9086 114.374 34.1669C114.481 33.8379 114.844 33.1083 115.233 32.327L115.233 32.3267L115.27 32.2536C118.078 26.6164 125.538 11.6377 112.776 2.28046C101.399 -6.059 83.2332 10.0716 70.0021 25.0779L72.3414 27.1411C80.4954 17.8943 100.575 -2.80053 110.93 4.7973C121.57 12.602 115.202 25.3943 112.479 30.8644L112.477 30.869L112.454 30.9151C111.953 31.9208 111.59 32.6484 111.411 33.1886C111.033 34.3207 110.952 35.7387 110.866 37.2362L110.863 37.2833L110.862 37.2983C110.685 40.4071 110.484 43.9297 107.798 45.9423C100.508 51.4139 91.0125 44.9364 90.9217 44.8733L89.1347 47.4256ZM55.952 19.7241C54.7648 16.967 50.9322 9.11496 44.6446 5.97281C43.8754 5.58622 43.5638 4.65128 43.9464 3.88203C44.333 3.11278 45.2679 2.80113 46.0372 3.18379C53.129 6.72808 57.2926 14.978 58.72 18.2636C59.1015 18.1839 59.4939 18.1428 59.8922 18.1428H60.76C61.2151 18.1428 61.6604 18.1933 62.0896 18.2892C63.5064 15.021 67.6732 6.7373 74.7835 3.18379C75.5567 2.80113 76.4916 3.11278 76.8743 3.88203C77.2609 4.65128 76.9492 5.58622 76.176 5.97281C69.876 9.12118 66.0407 17.0008 64.8617 19.7419C65.6887 20.5109 66.2845 21.5135 66.5235 22.6518C66.8825 24.356 66.4643 26.1075 65.3755 27.4527C64.9618 27.9617 64.474 28.3887 63.9343 28.7231C64.7431 29.6589 65.1934 30.8558 65.1934 32.1155V44.5853C65.1934 45.9543 64.6589 47.2549 63.7085 48.2224C64.6589 49.1892 65.1934 50.4871 65.1934 51.8596V63.4381C65.7673 64.8686 69.5787 73.3972 80.2551 77.9707C83.4307 79.3357 86.985 79.1384 90.0107 77.4382C94.1134 75.1304 96.8985 70.2151 97.8413 63.5956C98.2279 60.9013 97.8374 58.4239 96.6499 56.0175L99.4429 54.6368C100.918 57.6231 101.404 60.7001 100.926 64.0374C99.8414 71.6392 96.504 77.3632 91.5334 80.1562C89.3644 81.3748 86.9824 81.9902 84.5924 81.9906C82.7074 81.9903 80.8185 81.6077 79.0243 80.8387C71.5024 77.6154 67.0808 72.6867 64.6663 69.0351C64.0125 72.3792 62.6444 76.8031 59.998 76.8031V76.807C57.3669 76.807 56 72.4421 55.3419 69.1062C52.919 72.7044 48.4736 77.5977 40.9214 80.8347C39.1265 81.604 37.2369 81.9866 35.3512 81.9866L35.3473 81.9906C32.9567 81.9906 30.574 81.3752 28.4083 80.1562C23.4377 77.3632 20.1043 71.6392 19.0155 64.0374C18.5382 60.704 19.0234 57.627 20.4988 54.6368L23.2957 56.0175C22.1083 58.4239 21.7178 60.9013 22.1044 63.5956C23.0511 70.2151 25.8323 75.1304 29.9349 77.4382C32.9606 79.1384 36.515 79.3357 39.6906 77.9707C50.3602 73.3991 54.1876 65.1288 54.8026 63.6417V52.0411C54.8026 50.558 55.3725 49.2036 56.312 48.2258C55.3725 47.2473 54.8026 45.8925 54.8026 44.4117V32.297C54.8026 30.7538 55.4197 29.3499 56.4281 28.3646C55.3609 27.5604 54.5839 26.4074 54.3023 25.0661C53.9433 23.3579 54.3614 21.6064 55.4542 20.2651C55.6099 20.0729 55.7762 19.8924 55.952 19.7241ZM57.8763 22.2257C58.3734 21.6143 59.1111 21.2592 59.8922 21.2592H60.7561C62.0776 21.2592 63.2177 22.1113 63.4662 23.2909C63.6319 24.0838 63.4504 24.8649 62.9455 25.4842C62.4484 26.0957 61.7107 26.4507 60.9297 26.4507H60.0657C58.7442 26.4507 57.6041 25.5986 57.3556 24.4191C57.1899 23.6262 57.3714 22.8451 57.8763 22.2257ZM61.3275 46.1869C60.9618 46.4926 60.5209 46.6549 60.0499 46.6667L60.0027 46.6664C59.9802 46.6664 59.9577 46.6664 59.9351 46.6667C59.8232 46.6637 59.7099 46.6524 59.5957 46.6327C58.641 46.4591 57.9191 45.5044 57.9191 44.4117V32.297C57.9191 31.2043 58.6371 30.2496 59.5957 30.076C59.7337 30.0524 59.8679 30.0405 59.998 30.0405C60.4872 30.0405 60.9487 30.2062 61.3275 30.5218C61.8008 30.9202 62.073 31.5001 62.073 32.1195V44.5892C62.073 45.2086 61.8008 45.7885 61.3275 46.1869ZM59.998 49.7846C59.8679 49.7846 59.7337 49.7965 59.5957 49.8201C58.6371 49.9937 57.9191 50.9484 57.9191 52.0411V65.3748C57.9191 67.1224 59.0513 71.8207 59.998 73.3592C60.9448 71.8207 62.077 67.1224 62.077 65.3748V51.8636C62.077 51.2442 61.8048 50.6643 61.3314 50.2659C60.9527 49.9503 60.4911 49.7846 60.002 49.7846H59.998ZM42.8502 66.9882C39.6982 66.9882 37.134 64.4241 37.134 61.2721C37.134 58.1202 39.6982 55.556 42.8502 55.556C46.0021 55.556 48.5663 58.1202 48.5663 61.2721C48.5663 64.4241 46.0021 66.9882 42.8502 66.9882ZM42.8502 58.6724C41.4182 58.6724 40.2505 59.8362 40.2505 61.2721C40.2505 62.7081 41.4142 63.8718 42.8502 63.8718C44.2861 63.8718 45.4498 62.7081 45.4498 61.2721C45.4498 59.8362 44.2861 58.6724 42.8502 58.6724ZM82.6297 29.5159C83.2925 30.2615 84.3379 30.6402 85.7343 30.6402L85.7304 30.6362C85.841 30.6362 85.9517 30.6326 86.0659 30.6287L86.0775 30.6284C89.8173 30.4706 95.8608 27.7959 98.5473 24.214C99.786 22.565 99.8294 20.6163 98.6696 18.8687C96.9141 16.2217 92.8667 14.7266 89.6477 15.5313C86.9415 16.2098 83.3082 21.8944 82.2747 25.2475C81.6869 27.1569 81.8092 28.5928 82.6297 29.5159ZM96.0581 22.3481C93.2927 26.0286 86.33 28.076 85.0164 27.4725H85.0203C84.7205 25.7328 88.7088 19.0856 90.413 18.557C92.5274 18.0324 95.1468 19.1961 96.0778 20.5965C96.6104 21.4052 96.3658 21.9378 96.0581 22.3481ZM34.2616 30.6402C34.1472 30.6402 34.0329 30.6402 33.9145 30.6323C30.1748 30.4745 24.1352 27.7998 21.4448 24.2179C20.2061 22.5689 20.1627 20.6202 21.3225 18.8726C23.078 16.2256 27.1254 14.7305 30.3444 15.5352C33.0546 16.2138 36.6838 21.8944 37.7174 25.2515C38.3052 27.1608 38.1868 28.5967 37.3624 29.5198C36.6996 30.2654 35.6542 30.6441 34.2577 30.6441L34.2616 30.6402ZM28.4903 18.4308C26.6402 18.4308 24.6954 19.4367 23.9222 20.6005C23.3857 21.4092 23.6303 21.9378 23.9419 22.352C26.6796 26.001 33.5437 28.0523 34.9836 27.4566C35.244 25.6814 31.2833 19.0896 29.587 18.5649C29.232 18.4781 28.8651 18.4347 28.4903 18.4347V18.4308ZM70.3927 61.2721C70.3927 64.4241 72.9568 66.9882 76.1088 66.9882C79.2607 66.9882 81.8249 64.4241 81.8249 61.2721C81.8249 58.1202 79.2607 55.556 76.1088 55.556C72.9568 55.556 70.3927 58.1202 70.3927 61.2721ZM73.5091 61.2721C73.5091 59.8362 74.6768 58.6724 76.1088 58.6724C77.5447 58.6724 78.7085 59.8362 78.7085 61.2721C78.7085 62.7081 77.5447 63.8718 76.1088 63.8718C74.6729 63.8718 73.5091 62.7081 73.5091 61.2721ZM48.5654 52.4395C49.7136 52.4395 50.6443 51.5088 50.6443 50.3606C50.6443 49.2124 49.7136 48.2816 48.5654 48.2816C47.4172 48.2816 46.4864 49.2124 46.4864 50.3606C46.4864 51.5088 47.4172 52.4395 48.5654 52.4395ZM73.5093 50.3606C73.5093 51.5088 72.5785 52.4395 71.4303 52.4395C70.2821 52.4395 69.3514 51.5088 69.3514 50.3606C69.3514 49.2124 70.2821 48.2816 71.4303 48.2816C72.5785 48.2816 73.5093 49.2124 73.5093 50.3606ZM46.3805 36.2734C46.0846 36.2734 45.7809 36.1906 45.5165 36.0131L42.4001 33.9341C41.6821 33.4568 41.4888 32.4903 41.9662 31.7723C42.4435 31.0544 43.4139 30.8611 44.128 31.3384L47.2444 33.4173C47.9624 33.8947 48.1557 34.8612 47.6783 35.5791C47.3785 36.0289 46.8854 36.2734 46.3805 36.2734ZM73.1422 35.5791C73.442 36.0289 73.9351 36.2734 74.44 36.2734C74.7359 36.2734 75.0396 36.1906 75.3039 36.0131L78.4204 33.9341C79.1384 33.4568 79.3317 32.4903 78.8543 31.7723C78.377 31.0544 77.4066 30.8611 76.6925 31.3384L73.5761 33.4173C72.8581 33.8947 72.6648 34.8612 73.1422 35.5791ZM87.3121 72.9174L84.9452 70.8897C87.675 67.6943 87.9078 63.1893 85.671 56.7118C83.8761 51.5125 78.7083 47.9502 75.2842 45.5952C72.6293 43.7687 71.0316 42.6641 71.4142 40.9757C71.7759 39.3874 73.6853 39.0842 74.6081 38.9377L74.6175 38.9362C76.9962 38.5654 98.0106 34.9519 103.328 22.3677C105.009 18.3913 104.216 14.7147 100.973 11.4404L103.19 9.24708C107.348 13.4484 108.39 18.4071 106.2 23.5828C100.523 37.0111 80.5151 41.1217 75.5169 41.9501C75.9614 42.2734 76.4744 42.6275 76.9443 42.9518L77.0475 43.0231C80.807 45.6109 86.4837 49.5243 88.6139 55.6901C91.2096 63.213 90.7836 68.8463 87.3082 72.9095L87.3121 72.9174ZM31.5178 74.446C31.5185 74.4467 31.5191 74.4473 31.5197 74.448H31.5158L31.5178 74.446ZM28.9398 56.4199C26.3878 63.8155 27.2787 70.0476 31.5178 74.446L33.7604 72.2862C29.5 67.864 30.3875 61.7692 31.8827 57.4377C33.6776 52.2423 38.8454 48.6801 42.2695 46.321L42.2842 46.3109C44.9303 44.4866 46.5253 43.3869 46.1394 41.7016C45.7782 40.1114 43.8771 39.8108 42.9492 39.6641L42.9362 39.6621C40.5574 39.2913 19.547 35.6778 14.2254 23.0936C12.3397 18.632 13.8782 14.4228 18.8054 10.5844L16.8882 8.12282C10.7973 12.8724 8.88403 18.4663 11.3535 24.3086C17.0302 37.737 37.0386 41.8475 42.0368 42.676C41.5922 42.9993 41.0791 43.3535 40.6092 43.6778L40.5062 43.749L40.4992 43.7538C36.7397 46.3456 31.0647 50.2579 28.9398 56.4199Z" fill="url(#paint0_linear_1562_5483)"></path><defs><linearGradient id="paint0_linear_1562_5483" x1="88.4246" y1="-0.00053484" x2="42.4067" y2="89.3762" gradientUnits="userSpaceOnUse"><stop stop-color="#FECC0C"></stop><stop offset="1" stop-color="#E44E9C"></stop></linearGradient></defs></svg>